<?xml version="1.0" encoding="utf-8"?>
<!-- Generator: Adobe Illustrator 17.0.0, SVG Export Plug-In . SVG Version: 6.00 Build 0)  -->
<!DOCTYPE svg PUBLIC "-//W3C//DTD SVG 1.1//EN" "http://www.w3.org/Graphics/SVG/1.1/DTD/svg11.dtd">
<svg version="1.1" id="Layer_1" xmlns="http://www.w3.org/2000/svg" xmlns:xlink="http://www.w3.org/1999/xlink" x="0px" y="0px"
	 width="1000px" height="1000px" viewBox="0 0 1000 1000" enable-background="new 0 0 1000 1000" xml:space="preserve">
<g>
	<g>
		<path fill="#555555" d="M206.86,582.694l6.101,32.051l2.871-0.524C212.367,606.38,209.524,596.318,206.86,582.694z"/>
	</g>
	<g>
		<circle fill="#555555" cx="676.621" cy="206.86" r="79.941"/>
	</g>
	<g>
		<path fill="#555555" d="M338.997,253.352c-13.817,23.976-39.698,40.126-69.361,40.126c-25.715,0-48.587-12.133-63.204-31.002
			c-20.76,3.437-38.097,6.115-40.291,6.446c1.85-0.4,14.024-4.583,13.568-44.128c0,0,2.25-114.856,83.647-90.949h0.014
			c7.44-8.434,52.99-22.237,75.075,10.891c22.085,33.127,1.38,89.72,41.409,106.284
			C402.712,260.475,373.877,256.886,338.997,253.352z"/>
	</g>
	<path fill="#555555" d="M917.14,411.425l10.739-8.309l-10.863,8.351c-3.975-4.9-53.446-63.273-149.349-57.103l-9.773,216.101
		L740.93,668.08l121.426,70.741c16.467,9.593,22.044,30.712,12.45,47.179c-9.593,16.467-30.712,22.044-47.179,12.45l-162.918-94.896
		l16.426-94.455h-32.437l-69.899,82.805l46.337,138.97c6.018,18.082-3.755,37.627-21.823,43.659
		c-3.63,1.201-7.302,1.781-10.918,1.781c-14.452,0-27.91-9.151-32.741-23.603L501.087,676.97l103.73-122.875V379.637
		c-4.279-0.248-8.475-0.635-12.63-1.146c-31.14-3.823-59.077-14.466-83.04-31.651c-21.202-15.183-36.523-33.459-47.496-50.864
		c-6.17,6.405-13.348,13.03-21.685,19.656c-25.315,20.139-55.571,35.93-90.507,47.262v181.635l89.72,89.72v166.134
		c0,19.062-15.446,34.508-34.508,34.508c-19.062,0-34.508-15.446-34.508-34.508V662.849l-66.793-66.793l-28.862,5.314
		c6.28,18.344,7.84,40.402,4.624,65.813c-2.747,21.781-8.061,38.524-8.668,40.36l-2.429,7.481l-96.539,100.928
		c-6.777,7.081-15.86,10.656-24.942,10.656c-8.585,0-17.171-3.175-23.852-9.565c-13.776-13.182-14.259-35.018-1.09-48.794
		l85.234-89.099c4.79-18.869,7.785-46.641,0.704-59.298c-0.98-1.739-1.905-3.616-2.788-5.632c-3.465-7.84-6.308-17.903-8.972-31.526
		l-0.318-1.656v-0.014c-10.352-54.426-15.653-155.506-17.627-201.581C120.121,369.188,84.04,340.16,62.41,313.796
		c-31.733-38.704-37.683-74.302-39.656-83.55c-4.997-39.504,61.714-50.864,68.16-10.904c0.594,2.968,6.267,29.083,26.585,52.728
		c27.868,32.451,70.989,46.309,128.12,41.202c153.822-13.762,184.92-90.562,185.721-92.619
		c6.073-17.999,25.563-27.703,43.604-21.698c5.811,1.946,10.753,5.273,14.59,9.51c0.014,0,0.014,0.014,0.014,0.014
		c7.412,4.127,13.32,10.973,16.081,19.697c3.851,12.147,15.805,42.555,43.742,62.583c33.224,23.824,80.072,26.75,139.246,8.696
		c95.076-29.014,166.424-9.193,209.517,12.547c46.171,23.272,70.396,53.266,73.488,57.255l0.11-0.083
		C995.045,401.446,941.958,443.407,917.14,411.425z"/>
</g>
<g>
</g>
<g>
</g>
<g>
</g>
<g>
</g>
<g>
</g>
<g>
</g>
<g>
</g>
<g>
</g>
<g>
</g>
<g>
</g>
<g>
</g>
<g>
</g>
<g>
</g>
<g>
</g>
<g>
</g>
</svg>
