<?xml version="1.0" encoding="utf-8"?>
<!-- Generator: Adobe Illustrator 17.0.0, SVG Export Plug-In . SVG Version: 6.00 Build 0)  -->
<!DOCTYPE svg PUBLIC "-//W3C//DTD SVG 1.1//EN" "http://www.w3.org/Graphics/SVG/1.1/DTD/svg11.dtd">
<svg version="1.1" id="Layer_1" xmlns="http://www.w3.org/2000/svg" xmlns:xlink="http://www.w3.org/1999/xlink" x="0px" y="0px"
	 width="1000px" height="1000px" viewBox="0 0 1000 1000" enable-background="new 0 0 1000 1000" xml:space="preserve">
<g>
	<path fill="#555555" d="M993.762,622.832c0,30.905-83.536,130.979-174.43,198.656c-97.957,72.937-209.069,83.616-213.64,84.296
		c-106.953,15.913-58.638,26.757-166.743,1.771c-117.012-27.045-144.729-39.752-201.61-6.192
		c-56.881,33.56-118.224,84.719-118.325,84.541C65.849,892.605,6.238,786.855,6.238,786.855l213.407-129.385
		c0,0,101.402-69.316,220.654-69.316s217.992-7.639,217.992-7.639s53.484-1.763,58.186,44.081
		c3.672,35.804-22.842,56.803-40.041,56.803s-142.746,7.848-142.746,7.848s-78.169,53.957-18.22,77.524s157.514,0.645,157.514,0.645
		s80.536-8.274,125.776-58.774c45.241-50.5,115.785-112.846,115.785-112.846S985.405,552.304,993.762,622.832"/>
	<path fill="#555555" d="M500,144.153c0-187.554-315.617-169.551-315.617,36.516S500,524.974,500,524.974
		s315.617-138.237,315.617-344.304S500-43.401,500,144.153z M529.111,414.772c-49.159,0-91.211-29.728-108.315-71.763h-38.015
		V311.13h30.275c-0.3-3.332-0.458-6.7-0.458-10.086c0-3.879,0.194-7.705,0.582-11.496h-30.398v-31.861h38.579
		c17.474-41.295,59.121-70.37,107.75-70.37c21.494,0,41.665,5.695,58.962,15.64c-7.441,6.013-14.176,13.189-19.995,21.3
		c-11.725-5.748-24.967-8.975-38.967-8.975c-32.214,0-60.32,17.05-75.431,42.405h80.526v31.861h-91.582
		c-0.458,3.544-0.688,7.176-0.688,10.844c0,3.632,0.229,7.212,0.688,10.738h91.582v31.879h-80.562
		c15.076,25.39,43.234,42.458,75.466,42.458c14,0,27.224-3.209,38.967-8.957c6.048,8.446,13.101,15.869,20.947,22.076
		C571.516,408.865,551.01,414.772,529.111,414.772z"/>
</g>
<g>
</g>
<g>
</g>
<g>
</g>
<g>
</g>
<g>
</g>
<g>
</g>
<g>
</g>
<g>
</g>
<g>
</g>
<g>
</g>
<g>
</g>
<g>
</g>
<g>
</g>
<g>
</g>
<g>
</g>
</svg>
