<?xml version="1.0" encoding="utf-8"?>
<!-- Generator: Adobe Illustrator 17.0.0, SVG Export Plug-In . SVG Version: 6.00 Build 0)  -->
<!DOCTYPE svg PUBLIC "-//W3C//DTD SVG 1.1//EN" "http://www.w3.org/Graphics/SVG/1.1/DTD/svg11.dtd">
<svg version="1.1" id="Layer_1" xmlns="http://www.w3.org/2000/svg" xmlns:xlink="http://www.w3.org/1999/xlink" x="0px" y="0px"
	 width="1000px" height="1000px" viewBox="0 0 1000 1000" enable-background="new 0 0 1000 1000" xml:space="preserve">
<g>
	<path fill="#555555" d="M888.989,334.734c0,79.34-64.309,143.649-143.649,143.649c-29.882,0-57.638-9.122-80.622-24.753
		c-2.37-10.404-3.62-25.062-3.62-50.074c0-66.046-25.159-104.986-47.364-126.476c22.205-50.626,72.766-85.995,131.605-85.995
		C824.68,191.085,888.989,255.394,888.989,334.734z"/>
	<path fill="#555555" d="M521.669,591.923v0.016c-0.146-0.016-0.308-0.016-0.455-0.016H521.669z"/>
	<path fill="#555555" d="M519.364,591.923c-0.146,0-0.308,0-0.455,0.016v-0.016H519.364z"/>
	<path fill="#555555" d="M258.718,510.765v0.016c-0.455-0.016-0.925-0.016-1.38,0C257.793,510.765,258.263,510.765,258.718,510.765z
		"/>
	<path fill="#555555" d="M257.338,510.782c-0.455-0.016-0.925-0.016-1.38,0v-0.016C256.413,510.765,256.884,510.765,257.338,510.782
		z"/>
	<g>
		<path fill="#555555" d="M472.877,578.451c-84.761,5.405-146.035,31.668-182.426,78.236
			c-26.246,33.583-35.304,72.279-38.501,104.401H56.148c0,0-50.383,6.282-48.484-61.875
			c1.899-67.864,19.104-203.235,248.294-204.307c0.455-0.016,0.925-0.016,1.38,0c0.454-0.016,0.925-0.016,1.38,0
			c29.704,0.146,55.853,2.532,78.869,6.752c-1.461,3.133-2.776,6.882-3.36,12.855c-0.666,6.622,1.136,12.515,5.21,17.011
			c8.246,9.106,23.925,10.469,32.528,10.469c2.905,0,4.821-0.146,4.902-0.162l1.315-0.114l1.136-0.682
			c7.32-4.383,18.747-7.872,34.005-10.372c10.193,7.402,21.069,13.472,32.496,18.115
			C456.646,558.032,465.557,568.047,472.877,578.451z"/>
		<path fill="#555555" d="M402.432,269.499c-5.795,4.756-11.362,9.982-16.589,15.631c-30.775,33.242-45.87,75.444-42.543,118.864
			c0.99,12.855,1.639,23.828,2.013,33.242c-0.243-0.016-0.487-0.049-0.73-0.065c-24.786,18.325-55.447,29.152-88.624,29.152
			c-33.583,0-64.569-11.086-89.517-29.817c-16.15,2.483-29.541,6.184-38.388,11.492c0,0-38.956,3.246-36.521-21.101
			c2.435-24.347,17.368-3.896,9.09-111.511C92.344,207.771,202.719,134.404,253.848,162.16
			C274.722,145.036,379.075,161.625,402.432,269.499z"/>
	</g>
	<path fill="#555555" d="M744.041,458.75v0.016c-0.455-0.016-0.925-0.016-1.38,0C743.116,458.75,743.587,458.75,744.041,458.75z"/>
	<path fill="#555555" d="M943.852,773.165H760.419c-2.143-34.135-9.869-78.577-39.491-116.478
		c-36.683-46.909-98.59-73.221-184.309-78.35c15.436-17.952,36.375-34.135,64.764-46.536h0.016
		c16.15,1.51,27.853,2.857,32.285,3.506c2.581,0.373,5.324,0.552,8.132,0.552c15.663,0,35.563-6.087,43.273-17.741
		c1.721-2.581,2.727-5.34,3.003-8.165c16.313-1.85,34.021-2.873,53.191-2.97c0.455-0.016,0.925-0.016,1.38,0
		c0.454-0.016,0.925-0.016,1.38,0c229.19,1.071,246.395,136.442,248.294,204.307C994.235,779.446,943.852,773.165,943.852,773.165z"
		/>
	<path fill="#555555" d="M742.662,458.766c-0.455-0.016-0.925-0.016-1.38,0v-0.016C741.737,458.75,742.207,458.75,742.662,458.766z"
		/>
	<g>
		<g>
			<path fill="#555555" d="M518.91,591.923h0.455c-0.146,0-0.308,0-0.455,0.016V591.923z"/>
			<path fill="#555555" d="M521.669,591.923v0.016c-0.146-0.016-0.308-0.016-0.455-0.016H521.669z"/>
			<path fill="#555555" d="M749.674,787.546c-0.13-4.529-0.325-9.333-0.649-14.381c-2.11-32.431-9.512-74.227-37.057-109.482
				c-35.677-45.643-97.503-70.64-183.936-74.422h-0.016c-6.85-0.308-13.829-0.471-20.971-0.503h-0.179
				c-0.325-0.016-0.666-0.016-0.99,0l-0.195,0.016l-0.195-0.016c-0.325-0.016-0.666-0.016-0.99,0h-0.162
				c-8.343,0.032-16.475,0.26-24.396,0.665c-84.664,4.285-145.337,29.217-180.544,74.259
				c-24.234,31.018-32.885,67.101-36.034,97.406c-0.99,9.495-1.445,18.423-1.672,26.457c-0.584,20.744,3.798,36.05,13.001,45.513
				c9.366,9.642,21.669,10.68,26.522,10.68c1.623,0,2.597-0.114,2.597-0.114l0.682-0.049h402.737l0.357,0.049
				c0,0,0.958,0.114,2.565,0.114c4.853,0,17.157-1.039,26.539-10.68C745.892,823.596,750.258,808.29,749.674,787.546z
				 M521.669,591.923v0.016c-0.146-0.016-0.308-0.016-0.455-0.016H521.669z M518.91,591.923h0.455c-0.146,0-0.308,0-0.455,0.016
				V591.923z"/>
		</g>
		<g>
			<g>
				<path fill="#555555" d="M675.804,511.544c-0.065,0.097-0.13,0.211-0.195,0.308c-4.61,6.98-19.77,12.644-33.794,12.644
					c-2.272,0-4.464-0.146-6.525-0.438c-2.224-0.325-5.6-0.747-9.869-1.234c-8.002-0.909-19.202-2.029-32.009-3.133l-2.126-0.195
					l-1.737,1.282c-24.802,18.342-54.278,28.032-85.248,28.032c-31.343,0-61.112-9.917-86.108-28.681l-1.899-1.428l-2.37,0.357
					c-4.236,0.665-8.213,1.38-11.93,2.175c-11.459,2.419-20.452,5.519-27.269,9.349c-0.682,0.032-1.623,0.049-2.759,0.049
					c-11.281,0-20.289-2.516-24.104-6.736c-1.948-2.143-2.678-4.756-2.337-8.262c0.584-5.746,1.85-8.278,3.603-11.654
					c0.032-0.065,0.065-0.13,0.097-0.195c4.447-8.57,9.366-18.082,7.515-65.527c-0.373-9.934-1.071-21.539-2.11-35.141
					c-3.084-40.222,10.956-79.372,39.556-110.261c3.392-3.668,6.931-7.126,10.567-10.388c22.562-20.208,49.247-32.35,72.182-32.35
					c8.586,0,16.183,1.753,22.546,5.21l3.36,1.818l2.954-2.419c3.441-2.824,10.827-4.512,19.754-4.512
					c20.419,0,51.6,8.619,77.911,32.788c1.996,1.834,3.928,3.717,5.778,5.665c26.522,27.659,40.498,67.199,40.498,114.887
					c0,17.319,0.617,30.077,1.802,39.978c2.402,20.289,7.109,28.665,13.553,40.059c3.311,5.86,7.077,12.515,11.232,22.335
					C677.135,507.876,676.989,509.613,675.804,511.544z"/>
			</g>
		</g>
	</g>
</g>
<g>
</g>
<g>
</g>
<g>
</g>
<g>
</g>
<g>
</g>
<g>
</g>
<g>
</g>
<g>
</g>
<g>
</g>
<g>
</g>
<g>
</g>
<g>
</g>
<g>
</g>
<g>
</g>
<g>
</g>
</svg>
