<svg xmlns="http://www.w3.org/2000/svg" viewBox="0 0 2407 1500"><defs><style>.cls-1{isolation:isolate;}.cls-2,.cls-7{mix-blend-mode:multiply;}.cls-11,.cls-14,.cls-16,.cls-20,.cls-21,.cls-22,.cls-3,.cls-4,.cls-5{stroke:#000;stroke-miterlimit:10;stroke-width:4px;}.cls-4,.cls-6{fill:#fff;}.cls-5{fill:none;}.cls-7{opacity:0.99;}.cls-17,.cls-8{font-size:28.01px;font-family:Theinhardt-Medium, Theinhardt;font-weight:500;}.cls-9{letter-spacing:0em;}.cls-10{letter-spacing:0.01em;}.cls-11{fill:#30f;}.cls-12{letter-spacing:-0.02em;}.cls-13,.cls-17{letter-spacing:0em;}.cls-14{fill:red;}.cls-15{letter-spacing:0.01em;}.cls-16{fill:#ffec00;}.cls-18{letter-spacing:-0.01em;}.cls-19{letter-spacing:0em;}.cls-20{fill:#009b00;}.cls-21{fill:#39b54a;}.cls-22{fill:#ff0;}</style></defs><g class="cls-1"><g id="Love_Logo" data-name="Love Logo"><g class="cls-2"><path class="cls-3" d="M1600.83,1402.48c-357.19,0-645.95-313.28-646.74-646.74C953.27,415.57,1243.64,109,1600.83,109s646.74,289.56,646.74,646.74S1958,1402.48,1600.83,1402.48Z"/><circle class="cls-3" cx="833.05" cy="754.27" r="646.74"/><path class="cls-3" d="M1586.83,1387.48c-357.19,0-645.95-313.28-646.74-646.74C939.27,400.57,1229.64,94,1586.83,94s646.74,289.56,646.74,646.74S1944,1387.48,1586.83,1387.48Z"/><circle class="cls-3" cx="819.05" cy="739.27" r="646.74"/></g><g class="cls-2"><path class="cls-3" d="M1589.83,1392.48c-357.19,0-645.95-313.28-646.74-646.74C942.27,405.57,1232.64,99,1589.83,99s646.74,289.56,646.74,646.74S1947,1392.48,1589.83,1392.48Z"/><circle class="cls-3" cx="822.05" cy="744.27" r="646.74"/></g><path class="cls-4" d="M1575.83,1377.48c-357.19,0-645.95-313.28-646.74-646.74C928.27,390.57,1218.64,84,1575.83,84s646.74,289.56,646.74,646.74S1933,1377.48,1575.83,1377.48Z"/><circle class="cls-4" cx="808.05" cy="729.27" r="646.74"/><path class="cls-5" d="M1197,211c-64.61,54.92-258,204-265,507-6.57,284.22,189,476,264,529"/></g><g id="icons"><g id="painting_palette" data-name="painting palette"><g class="cls-2"><path d="M349.15,815.41a10.19,10.19,0,0,1-2.18-.25c-5.31-1.08-17.76-3.62-32.84-22.42-13.63-17-17.28-30.36-19.7-39.19-.24-.86-.46-1.67-.68-2.44-6.72-23.62-1.9-46.84,13.58-65.38,10.95-13.11,34.42-29.33,41.28-33.45,10.84-6.5,30.83-13.45,54.41-13.45a119,119,0,0,1,28.77,3.51c21.85,5.47,30.68,9.83,40.91,14.89,3.23,1.6,6.57,3.25,10.52,5,18.47,8.4,31.94,19.05,38.41,24.17,13.36,10.57,20.07,15.87,25,24.87a56.49,56.49,0,0,1,4.1,43.81c-1.29,3.9-3.7,11.15-10.15,14.34a15.35,15.35,0,0,1-6.77,1.77h0a8.88,8.88,0,0,1-3.83-.82,6.34,6.34,0,0,1-2.76-2.57,11.61,11.61,0,0,0-3.92-3.83,14.16,14.16,0,0,0-7.28-1.86,22.33,22.33,0,0,0-12.64,4.25c-3.18,2.33-4.76,4.9-6.81,8.56a185.14,185.14,0,0,0-9,18c-1.77,4-2.25,5-3.8,6a6.62,6.62,0,0,1-3.53.87c-5.08,0-13.44-3.57-25-8.51a166.32,166.32,0,0,1-17.15-8.4c-4.28-2.38-6.64-3.69-11.29-4.19a25.51,25.51,0,0,0-2.69-.15c-7.2,0-13,3.46-30.29,13.72l-3.41,2C361.46,811.46,353.75,815.41,349.15,815.41Zm11.67-63.67c-8.84,0-16.9,5.32-22.78,9.22-14,9.25-20,17.59-17.88,24.8,2.71,9.18,18,12,26.63,12.21h1.1c24.12,0,36-13.34,36.45-22.36.47-9.53-7.13-18.38-14.52-21.86A20.94,20.94,0,0,0,360.82,751.74Zm162.75-30.19a12.59,12.59,0,0,0-8.62,2.94c-3,2.6-4.59,6.92-4.47,11.84a20.35,20.35,0,0,0,7.23,15.39,18.47,18.47,0,0,0,11.35,4,15.2,15.2,0,0,0,9.13-2.94A16.39,16.39,0,0,0,544,735.23c-1.08-3.82-4.07-9-12.21-12.12A24.36,24.36,0,0,0,523.57,721.55ZM336.63,697.29c-2.73,0-4.76,1-7.58,2.25a81.51,81.51,0,0,1-15.32,5.51l-.9.24c-3.07.79-5.3,1.36-6.39,3.74-2.77,6,5.69,16.47,14.3,20.54a24.31,24.31,0,0,0,10.5,2.35,26.91,26.91,0,0,0,12.29-3c1.39-.78,13.49-7.89,11.57-18-1.49-7.93-10.3-12.34-15.85-13.37A14.7,14.7,0,0,0,336.63,697.29Zm15.49-33.6c-4.3,0-7.45,1.38-9.12,4-1.82,2.83-1.67,6.88.43,11.42a29.74,29.74,0,0,0,7.69,10c2.57,2.13,7.71,5.71,13.2,5.71a11.29,11.29,0,0,0,5.5-1.39,13.67,13.67,0,0,0,6.57-13.59c-1-7.82-8.68-11.6-11.56-13A30.89,30.89,0,0,0,352.12,663.69Zm38.55-4.82a9,9,0,0,0-4.64,1.21,11,11,0,0,0-4.84,7.63,16.22,16.22,0,0,0,2.91,12.8,16,16,0,0,0,12.47,6.07,10.64,10.64,0,0,0,7.86-3.05c3.34-3.52,3.15-9.33,1.47-13.53C403.46,663.86,396.62,658.87,390.67,658.87Z"/><path d="M403,640.83a117.05,117.05,0,0,1,28.29,3.45c21.63,5.41,30,9.53,40.5,14.74,3.25,1.61,6.6,3.27,10.58,5.08,18.25,8.3,31.59,18.85,38,23.92,13.56,10.72,19.75,15.62,24.46,24.26a54.42,54.42,0,0,1,3.95,42.22c-1.66,5-3.88,10.58-9.13,13.18a13.39,13.39,0,0,1-5.89,1.56,6.78,6.78,0,0,1-3-.63,4.33,4.33,0,0,1-2-1.9,13.61,13.61,0,0,0-4.56-4.41,16.15,16.15,0,0,0-8.29-2.14,24.31,24.31,0,0,0-13.81,4.64c-3.5,2.55-5.27,5.42-7.38,9.19a185.45,185.45,0,0,0-9.05,18.14c-1.74,4-2.05,4.49-3,5.07a4.43,4.43,0,0,1-2.49.58c-4.67,0-13.3-3.69-24.22-8.35a164.49,164.49,0,0,1-17-8.31c-4.36-2.42-7-3.88-12.05-4.42a26.91,26.91,0,0,0-2.9-.17c-7.75,0-13.69,3.53-31.31,14l-3.41,2c-28.25,16.76-36.14,20.85-40.25,20.85a8.41,8.41,0,0,1-1.78-.21c-8.43-1.72-18.79-5.64-31.67-21.72-13.38-16.68-17-29.79-19.35-38.46-.23-.87-.46-1.69-.67-2.45a70.23,70.23,0,0,1-1.73-32.8A67.72,67.72,0,0,1,308.87,687c10.78-12.92,34-28.94,40.77-33,10.61-6.37,30.21-13.17,53.38-13.17m-6.45,47.76a12.61,12.61,0,0,0,9.31-3.68c4.22-4.45,3.65-11.21,1.88-15.65-2.77-7-10.28-12.39-17.1-12.39a10.91,10.91,0,0,0-5.65,1.49,12.93,12.93,0,0,0-5.79,9,18.25,18.25,0,0,0,3.3,14.4,18,18,0,0,0,14.05,6.86m-32.25,8.23a13.24,13.24,0,0,0,6.47-1.64,15.7,15.7,0,0,0,7.58-15.6c-1.16-8.88-9.51-13-12.66-14.56a33,33,0,0,0-13.59-3.33c-6.33,0-9.37,2.67-10.8,4.91-2.2,3.42-2.1,8.16.29,13.34a31.92,31.92,0,0,0,8.24,10.71c2.78,2.31,8.36,6.17,14.47,6.17m-33.08,37.1a29,29,0,0,0,13.27-3.23c1.51-.85,14.74-8.63,12.56-20.14-1.51-8-9.92-13.57-17.46-15a16,16,0,0,0-3-.3c-3.17,0-5.49,1.08-8.42,2.44a80.79,80.79,0,0,1-15,5.39l-.9.23c-3.19.83-6.21,1.61-7.71,4.84-3.35,7.25,5.61,18.62,15.26,23.19a26.3,26.3,0,0,0,11.36,2.54m197.82,23.79a17.12,17.12,0,0,0,10.32-3.34,18.38,18.38,0,0,0,6.49-19.68c-1.2-4.27-4.5-10.06-13.42-13.45a26.35,26.35,0,0,0-8.88-1.69,14.56,14.56,0,0,0-9.94,3.43c-3.4,3-5.28,7.88-5.15,13.4a22.4,22.4,0,0,0,8,16.91,20.55,20.55,0,0,0,12.6,4.42M347.89,800A55.87,55.87,0,0,0,372,794.39c8.89-4.51,14-11.14,14.36-18.67.51-10.4-7.69-20-15.66-23.77a22.94,22.94,0,0,0-9.86-2.21c-9.45,0-17.79,5.52-23.89,9.55-14.8,9.79-21.09,18.89-18.69,27,1.44,4.89,5.81,8.6,13,11A56.65,56.65,0,0,0,346.74,800h1.15M403,636.83c-23.94,0-44.17,7-55.44,13.74-5.64,3.39-30.07,19.85-41.78,33.88-16.9,20.23-20.52,44.21-14,67.21,2.45,8.6,5.51,23.33,20.74,42.33,14.29,17.81,26.14,21.53,34,23.13a12.44,12.44,0,0,0,2.58.29c5.15,0,12.58-3.78,42.29-21.41,19.69-11.69,25.6-15.47,32.68-15.47a23.79,23.79,0,0,1,2.48.14c7.83.84,8.44,4.14,27.86,12.44,12.54,5.35,20.44,8.67,25.79,8.67a8.51,8.51,0,0,0,4.57-1.16c4-2.45,2.91-5.84,13.47-24.67,1.87-3.36,3.34-5.8,6.24-7.92A20.46,20.46,0,0,1,516,764.16a12.27,12.27,0,0,1,6.27,1.59c3.63,2.13,3.1,4.7,6.83,6.48a10.82,10.82,0,0,0,4.69,1,17.89,17.89,0,0,0,7.66-2c7-3.49,9.65-11,11.16-15.5a58.36,58.36,0,0,0-4.24-45.39c-5.1-9.36-11.9-14.74-25.49-25.49-8.22-6.5-21.06-16.34-38.82-24.42-16.76-7.63-23-12.86-51.77-20.06A120.87,120.87,0,0,0,403,636.83Zm-6.45,47.76a14.12,14.12,0,0,1-10.88-5.3c-4.36-5.66-3.37-14.68,1.36-17.49a7,7,0,0,1,3.62-.93c5.07,0,11.2,4.42,13.38,9.87,1.27,3.2,1.83,8.37-1.07,11.42a8.7,8.7,0,0,1-6.41,2.43Zm-32.25,8.23c-5.58,0-10.9-4.4-11.93-5.25-5.63-4.66-10.86-13.89-7.71-18.81,1.43-2.22,4.24-3.07,7.44-3.07a28.78,28.78,0,0,1,11.82,2.92c2.84,1.4,9.58,4.73,10.47,11.49a11.74,11.74,0,0,1-5.55,11.58,9.33,9.33,0,0,1-4.54,1.14Zm-33.08,37.1a22.23,22.23,0,0,1-9.64-2.16c-8.44-4-15.36-13.55-13.35-17.89.77-1.67,2.58-2,6-2.88,15.12-4,17.46-7.7,22.39-7.7a12.62,12.62,0,0,1,2.25.23c5.58,1,13,5.33,14.26,11.77,1.67,8.84-9.62,15.37-10.59,15.91a25.09,25.09,0,0,1-11.31,2.72Zm197.82,23.79a16.52,16.52,0,0,1-10.1-3.55c-7.53-6-8.61-19-2.69-24.17a10.78,10.78,0,0,1,7.3-2.44A22.45,22.45,0,0,1,531,725c1.74.66,8.91,3.38,11,10.79a14.45,14.45,0,0,1-5,15.39,13.13,13.13,0,0,1-7.94,2.55ZM347.89,796h-1.05c-7.6-.19-22.38-2.71-24.76-10.78-2.79-9.44,13.28-20.07,17.06-22.57,5.74-3.79,13.44-8.88,21.68-8.88a18.75,18.75,0,0,1,8.15,1.83c7.36,3.47,13.77,11.92,13.37,19.95C381.68,789,362,796,347.89,796Z"/></g><path class="cls-6" d="M341.15,807.41a10.19,10.19,0,0,1-2.18-.25c-5.31-1.08-17.76-3.62-32.84-22.42-13.63-17-17.28-30.36-19.7-39.19-.24-.86-.46-1.67-.68-2.44-6.72-23.62-1.9-46.84,13.58-65.38,10.95-13.11,34.42-29.33,41.28-33.45,10.84-6.5,30.83-13.45,54.41-13.45a119,119,0,0,1,28.77,3.51c21.85,5.47,30.68,9.83,40.91,14.89,3.23,1.6,6.57,3.25,10.52,5,18.47,8.4,31.94,19.05,38.41,24.17,13.36,10.57,20.07,15.87,25,24.87a56.49,56.49,0,0,1,4.1,43.81c-1.29,3.9-3.7,11.15-10.15,14.34a15.35,15.35,0,0,1-6.77,1.77h0a8.88,8.88,0,0,1-3.83-.82,6.34,6.34,0,0,1-2.76-2.57,11.61,11.61,0,0,0-3.92-3.83,14.16,14.16,0,0,0-7.28-1.86,22.33,22.33,0,0,0-12.64,4.25c-3.18,2.33-4.76,4.9-6.81,8.56a185.14,185.14,0,0,0-9,18c-1.77,4-2.25,5-3.8,6a6.62,6.62,0,0,1-3.53.87c-5.08,0-13.44-3.57-25-8.51a166.32,166.32,0,0,1-17.15-8.4c-4.28-2.38-6.64-3.69-11.29-4.19a25.51,25.51,0,0,0-2.69-.15c-7.2,0-13,3.46-30.29,13.72l-3.41,2C353.46,803.46,345.75,807.41,341.15,807.41Zm11.67-63.67c-8.84,0-16.9,5.32-22.78,9.22-14,9.25-20,17.59-17.88,24.8,2.71,9.18,18,12,26.63,12.21h1.1c24.12,0,36-13.34,36.45-22.36.47-9.53-7.13-18.38-14.52-21.86A20.94,20.94,0,0,0,352.82,743.74Zm162.75-30.19a12.59,12.59,0,0,0-8.62,2.94c-3,2.6-4.59,6.92-4.47,11.84a20.35,20.35,0,0,0,7.23,15.39,18.47,18.47,0,0,0,11.35,4,15.2,15.2,0,0,0,9.13-2.94A16.39,16.39,0,0,0,536,727.23c-1.08-3.82-4.07-9-12.21-12.12A24.36,24.36,0,0,0,515.57,713.55ZM328.63,689.29c-2.73,0-4.76,1-7.58,2.25a81.51,81.51,0,0,1-15.32,5.51l-.9.24c-3.07.79-5.3,1.36-6.39,3.74-2.77,6,5.69,16.47,14.3,20.54a24.31,24.31,0,0,0,10.5,2.35,26.91,26.91,0,0,0,12.29-3c1.39-.78,13.49-7.89,11.57-18-1.49-7.93-10.3-12.34-15.85-13.37A14.7,14.7,0,0,0,328.63,689.29Zm15.49-33.6c-4.3,0-7.45,1.38-9.12,4-1.82,2.83-1.67,6.88.43,11.42a29.74,29.74,0,0,0,7.69,10c2.57,2.13,7.71,5.71,13.2,5.71a11.29,11.29,0,0,0,5.5-1.39,13.67,13.67,0,0,0,6.57-13.59c-1-7.82-8.68-11.6-11.56-13A30.89,30.89,0,0,0,344.12,655.69Zm38.55-4.82a9,9,0,0,0-4.64,1.21,11,11,0,0,0-4.84,7.63,16.22,16.22,0,0,0,2.91,12.8,16,16,0,0,0,12.47,6.07,10.64,10.64,0,0,0,7.86-3.05c3.34-3.52,3.15-9.33,1.47-13.53C395.46,655.86,388.62,650.87,382.67,650.87Z"/><path d="M395,632.83a117.05,117.05,0,0,1,28.29,3.45c21.63,5.41,30,9.53,40.5,14.74,3.25,1.61,6.6,3.27,10.58,5.08,18.25,8.3,31.59,18.85,38,23.92,13.56,10.72,19.75,15.62,24.46,24.26a54.42,54.42,0,0,1,3.95,42.22c-1.66,5-3.88,10.58-9.13,13.18a13.39,13.39,0,0,1-5.89,1.56,6.78,6.78,0,0,1-3-.63,4.33,4.33,0,0,1-2-1.9,13.61,13.61,0,0,0-4.56-4.41,16.15,16.15,0,0,0-8.29-2.14,24.31,24.31,0,0,0-13.81,4.64c-3.5,2.55-5.27,5.42-7.38,9.19a185.45,185.45,0,0,0-9.05,18.14c-1.74,4-2.05,4.49-3,5.07a4.43,4.43,0,0,1-2.49.58c-4.67,0-13.3-3.69-24.22-8.35a164.49,164.49,0,0,1-17-8.31c-4.36-2.42-7-3.88-12.05-4.42a26.91,26.91,0,0,0-2.9-.17c-7.75,0-13.69,3.53-31.31,14l-3.41,2c-28.25,16.76-36.14,20.85-40.25,20.85a8.41,8.41,0,0,1-1.78-.21c-8.43-1.72-18.79-5.64-31.67-21.72-13.38-16.68-17-29.79-19.35-38.46-.23-.87-.46-1.69-.67-2.45a70.23,70.23,0,0,1-1.73-32.8A67.72,67.72,0,0,1,300.87,679c10.78-12.92,34-28.94,40.77-33,10.61-6.37,30.21-13.17,53.38-13.17m-6.45,47.76a12.61,12.61,0,0,0,9.31-3.68c4.22-4.45,3.65-11.21,1.88-15.65-2.77-7-10.28-12.39-17.1-12.39a10.91,10.91,0,0,0-5.65,1.49,12.93,12.93,0,0,0-5.79,9,18.25,18.25,0,0,0,3.3,14.4,18,18,0,0,0,14.05,6.86m-32.25,8.23a13.24,13.24,0,0,0,6.47-1.64,15.7,15.7,0,0,0,7.58-15.6c-1.16-8.88-9.51-13-12.66-14.56a33,33,0,0,0-13.59-3.33c-6.33,0-9.37,2.67-10.8,4.91-2.2,3.42-2.1,8.16.29,13.34a31.92,31.92,0,0,0,8.24,10.71c2.78,2.31,8.36,6.17,14.47,6.17m-33.08,37.1a29,29,0,0,0,13.27-3.23c1.51-.85,14.74-8.63,12.56-20.14-1.51-8-9.92-13.57-17.46-15a16,16,0,0,0-3-.3c-3.17,0-5.49,1.08-8.42,2.44a80.79,80.79,0,0,1-15,5.39l-.9.23c-3.19.83-6.21,1.61-7.71,4.84-3.35,7.25,5.61,18.62,15.26,23.19a26.3,26.3,0,0,0,11.36,2.54m197.82,23.79a17.12,17.12,0,0,0,10.32-3.34,18.38,18.38,0,0,0,6.49-19.68c-1.2-4.27-4.5-10.06-13.42-13.45a26.35,26.35,0,0,0-8.88-1.69,14.56,14.56,0,0,0-9.94,3.43c-3.4,3-5.28,7.88-5.15,13.4a22.4,22.4,0,0,0,8,16.91,20.55,20.55,0,0,0,12.6,4.42M339.89,792A55.87,55.87,0,0,0,364,786.39c8.89-4.51,14-11.14,14.36-18.67.51-10.4-7.69-20-15.66-23.77a22.94,22.94,0,0,0-9.86-2.21c-9.45,0-17.79,5.52-23.89,9.55-14.8,9.79-21.09,18.89-18.69,27,1.44,4.89,5.81,8.6,13,11A56.65,56.65,0,0,0,338.74,792h1.15M395,628.83c-23.94,0-44.17,7-55.44,13.74-5.64,3.39-30.07,19.85-41.78,33.88-16.9,20.23-20.52,44.21-14,67.21,2.45,8.6,5.51,23.33,20.74,42.33,14.29,17.81,26.14,21.53,34,23.13a12.44,12.44,0,0,0,2.58.29c5.15,0,12.58-3.78,42.29-21.41,19.69-11.69,25.6-15.47,32.68-15.47a23.79,23.79,0,0,1,2.48.14c7.83.84,8.44,4.14,27.86,12.44,12.54,5.35,20.44,8.67,25.79,8.67a8.51,8.51,0,0,0,4.57-1.16c4-2.45,2.91-5.84,13.47-24.67,1.87-3.36,3.34-5.8,6.24-7.92A20.46,20.46,0,0,1,508,756.16a12.27,12.27,0,0,1,6.27,1.59c3.63,2.13,3.1,4.7,6.83,6.48a10.82,10.82,0,0,0,4.69,1,17.89,17.89,0,0,0,7.66-2c7-3.49,9.65-11,11.16-15.5a58.36,58.36,0,0,0-4.24-45.39c-5.1-9.36-11.9-14.74-25.49-25.49-8.22-6.5-21.06-16.34-38.82-24.42-16.76-7.63-23-12.86-51.77-20.06A120.87,120.87,0,0,0,395,628.83Zm-6.45,47.76a14.12,14.12,0,0,1-10.88-5.3c-4.36-5.66-3.37-14.68,1.36-17.49a7,7,0,0,1,3.62-.93c5.07,0,11.2,4.42,13.38,9.87,1.27,3.2,1.83,8.37-1.07,11.42a8.7,8.7,0,0,1-6.41,2.43Zm-32.25,8.23c-5.58,0-10.9-4.4-11.93-5.25-5.63-4.66-10.86-13.89-7.71-18.81,1.43-2.22,4.24-3.07,7.44-3.07a28.78,28.78,0,0,1,11.82,2.92c2.84,1.4,9.58,4.73,10.47,11.49a11.74,11.74,0,0,1-5.55,11.58,9.33,9.33,0,0,1-4.54,1.14Zm-33.08,37.1a22.23,22.23,0,0,1-9.64-2.16c-8.44-4-15.36-13.55-13.35-17.89.77-1.67,2.58-2,6-2.88,15.12-4,17.46-7.7,22.39-7.7a12.62,12.62,0,0,1,2.25.23c5.58,1,13,5.33,14.26,11.77,1.67,8.84-9.62,15.37-10.59,15.91a25.09,25.09,0,0,1-11.31,2.72Zm197.82,23.79a16.52,16.52,0,0,1-10.1-3.55c-7.53-6-8.61-19-2.69-24.17a10.78,10.78,0,0,1,7.3-2.44A22.45,22.45,0,0,1,523,717c1.74.66,8.91,3.38,11,10.79a14.45,14.45,0,0,1-5,15.39,13.13,13.13,0,0,1-7.94,2.55ZM339.89,788h-1.05c-7.6-.19-22.38-2.71-24.76-10.78-2.79-9.44,13.28-20.07,17.06-22.57,5.74-3.79,13.44-8.88,21.68-8.88a18.75,18.75,0,0,1,8.15,1.83c7.36,3.47,13.77,11.92,13.37,19.95C373.68,781,354,788,339.89,788Z"/><path d="M506.59,632.8S457.21,758.9,423.7,857.66c-1,3-1.76,12.34-1.76,12.34s5.84-9,7.05-12.34C458.09,777.41,517.17,639,517.17,639"/><path d="M510.43,648.71c-2.65-1.13-10.18-5.55-13.51-13.64-4.16-10.14.73-20.07,2.81-24.31,4.71-9.6,8.64-8,20.91-23.7,7.63-9.78,9.51-14.76,10.23-19.48,1-6.43-.23-12.32.43-12.38s2.24,6.73,3.35,11.64c1.05,4.67,1.78,7.93,2.76,13.75.71,4.27,1.84,11.62,2.9,23,1.23,13.31,1.85,20,.9,24-.79,3.3-3.64,13.3-11.18,18-3.51,2.21-8.31,3.44-10.22,3.93a13.9,13.9,0,0,1-3.94.5A16.56,16.56,0,0,1,510.43,648.71Z"/><path class="cls-4" d="M504.94,614.61S455.56,740.7,422.06,839.46c-1,2.95-1.77,12.34-1.77,12.34s5.85-9,7.06-12.34c29.1-80.24,88.18-218.68,88.18-218.68"/><path class="cls-6" d="M514.28,629.8a14.45,14.45,0,0,1-4.7-1.13c-3.06-1.3-9.6-5.6-12.45-12.56-3.82-9.3.79-18.66,2.75-22.66,2.25-4.59,4.2-6.31,7.42-9.18a95.08,95.08,0,0,0,13.28-14.18c7.77-10,9.83-15.18,10.62-20.37,1,4.41,1.67,7.51,2.59,13,1.15,6.86,2.09,14.33,2.88,22.85,1.22,13.08,1.83,19.64,1,23.31s-3.61,12.61-10.29,16.8c-3.25,2-7.91,3.22-9.66,3.67a11.72,11.72,0,0,1-3.1.45Z"/><path d="M530.88,557.79c.3,1.55.6,3.25.94,5.27,1.14,6.81,2.08,14.23,2.86,22.71,1.16,12.45,1.8,19.31,1,22.66-.64,2.66-3.19,11.66-9.41,15.56-3,1.87-7.43,3-9.1,3.44a10.06,10.06,0,0,1-2.6.38h-.21a12.65,12.65,0,0,1-4-1c-.08,0-8.12-3.55-11.38-11.49-3.48-8.46.69-16.94,2.7-21,2.07-4.23,3.81-5.77,6.95-8.56a96.42,96.42,0,0,0,13.52-14.45c4.47-5.71,7.11-10,8.73-13.53M529.67,537h0c-.66.06.54,6-.43,12.38-.72,4.73-2.6,9.71-10.23,19.48-12.28,15.73-16.2,14.11-20.91,23.71-2.09,4.23-7,14.17-2.81,24.3,3.32,8.1,10.85,12.51,13.51,13.64a16.56,16.56,0,0,0,5.44,1.29h.34a13.86,13.86,0,0,0,3.59-.51,38.32,38.32,0,0,0,10.23-3.92c7.54-4.73,10.39-14.73,11.18-18,.95-4,.33-10.64-.9-24-1.06-11.38-2.19-18.73-2.9-23-1-5.83-1.71-9.08-2.76-13.76-1.1-4.88-2.63-11.64-3.34-11.64Z"/></g><g class="cls-2"><path d="M560.62,1254c.42-17.43,3.33-140,3.33-156.75a2.2,2.2,0,0,0-2.15-2.44c-1.61,0-2.35,0-10.07,18.59-2.54,6.12-5,12.29-6.22,15.37l-41.36-20.16c3.85-9.24,22.41-52.79,34.73-63.29,8.78-7.5,40.9-15.7,49.68-17.84.44,4.34,1.51,12.62,3.4,15.45,6.3,9.47,15.95,14.5,29.48,15.39.93.07,1.9.1,2.88.1,19,0,30.57-9.58,35-18.55a31.39,31.39,0,0,0,3.18-12.61c11.9,1.56,37.79,6,44.74,11.8,14.31,12,34.87,61.42,39.09,71.84l-42.56,14.93c-8.69-25.57-9.48-25.58-11.15-25.58h-.91l-.64.7a3,3,0,0,0-.5,2.48c.76,6.09,1,100,1,150.57Z"/><path d="M664.36,1029.52c14.67,2,35.95,6.32,41.63,11.08,4.4,3.69,12.37,13.81,25.35,41.08,5.52,11.59,10.1,22.47,12.38,28L705,1123.28c-.87-2.5-2.06-5.92-3.28-9.31-5-13.94-5.76-15.72-9.11-15.72a4.08,4.08,0,0,0-3,1.38,4.92,4.92,0,0,0-1,4c.69,5.5,1,90.2,1,148.32H562.67c.56-23.32,3.28-138.58,3.28-154.75a4.91,4.91,0,0,0-.28-1.71,4.1,4.1,0,0,0-3.88-2.73c-3,0-3.95.68-11.9,19.82-2.08,5-4.1,10-5.44,13.4l-37.74-18.39c7-16.71,23.16-52,33.46-60.8,7.24-6.17,33-13.49,46.64-16.88.59,5,1.67,11.36,3.48,14.08,6.68,10,16.82,15.34,31,16.28,1,.07,2,.1,3,.1,19.94,0,32.1-10.15,36.82-19.66a32.75,32.75,0,0,0,3.22-11.24m-3.8-4.52a30.3,30.3,0,0,1-3,14c-6.46,13-21.8,17.44-33.24,17.44-1,0-1.87,0-2.75-.09-16.61-1.1-24-8.57-28-14.51-2.18-3.26-3.29-16.82-3.29-16.82s-42.1,9.71-52.75,18.8c-14.27,12.16-36,65.79-36,65.79l45,21.93s13.6-34.7,15.22-34.71c.1,0,.15.14.15.44,0,18.07-3.38,158.75-3.38,158.75h135s0-144.9-1-152.82c-.08-.64-.06-.93.06-.93,1.06,0,9.91,26.14,9.91,26.14l46.44-16.3s-23.93-60.71-40.44-74.56c-9.51-8-48-12.53-48-12.53Z"/></g><path class="cls-6" d="M546.62,1239c.42-17.43,3.33-140,3.33-156.75a2.2,2.2,0,0,0-2.15-2.44c-1.61,0-2.35,0-10.07,18.59-2.54,6.12-5,12.29-6.22,15.37l-41.36-20.16c3.85-9.24,22.41-52.79,34.73-63.29,8.78-7.5,40.9-15.7,49.68-17.84.44,4.34,1.51,12.62,3.4,15.45,6.3,9.47,15.95,14.5,29.48,15.39.93.07,1.9.1,2.88.1,19,0,30.57-9.58,35-18.55a31.39,31.39,0,0,0,3.18-12.61c11.9,1.56,37.79,6,44.74,11.8,14.31,12,34.87,61.42,39.09,71.84l-42.56,14.93c-8.69-25.57-9.48-25.58-11.15-25.58h-.91l-.64.7a3,3,0,0,0-.5,2.48c.76,6.09,1,100,1,150.57Z"/><path d="M650.36,1014.52c14.67,2,35.95,6.32,41.63,11.08,4.4,3.69,12.37,13.81,25.35,41.08,5.52,11.59,10.1,22.47,12.38,28L691,1108.28c-.87-2.5-2.06-5.92-3.28-9.31-5-13.94-5.76-15.72-9.11-15.72a4.08,4.08,0,0,0-3,1.38,4.92,4.92,0,0,0-1,4c.69,5.5,1,90.2,1,148.32H548.67c.56-23.32,3.28-138.58,3.28-154.75a4.91,4.91,0,0,0-.28-1.71,4.1,4.1,0,0,0-3.88-2.73c-3,0-3.95.68-11.9,19.82-2.08,5-4.1,10-5.44,13.4l-37.74-18.39c7-16.71,23.16-52,33.46-60.8,7.24-6.17,33-13.49,46.64-16.88.59,5,1.67,11.36,3.48,14.08,6.68,10,16.82,15.34,31,16.28,1,.07,2,.1,3,.1,19.94,0,32.1-10.15,36.82-19.66a32.75,32.75,0,0,0,3.22-11.24m-3.8-4.52a30.3,30.3,0,0,1-3,14c-6.46,13-21.8,17.44-33.24,17.44-1,0-1.87,0-2.75-.09-16.61-1.1-24-8.57-28-14.51-2.18-3.26-3.29-16.82-3.29-16.82s-42.1,9.71-52.75,18.8c-14.27,12.16-36,65.79-36,65.79l45,21.93s13.6-34.7,15.22-34.71c.1,0,.15.14.15.44,0,18.07-3.38,158.75-3.38,158.75h135s0-144.9-1-152.82c-.08-.64-.06-.93.06-.93,1.06,0,9.91,26.14,9.91,26.14l46.44-16.3s-23.93-60.71-40.44-74.56c-9.51-8-48-12.53-48-12.53Z"/><g class="cls-2"><path class="cls-3" d="M1907.42,672.79a3.51,3.51,0,0,1-.09,2,3.32,3.32,0,0,1-1.8,1.95c-.89.49-1.86.87-2.81,1.29a43.94,43.94,0,0,0-8.27,4.64c-4,2.92-7.36,6.35-9,10.81a26.46,26.46,0,0,0-1.63,14,11.22,11.22,0,0,1-2.59,9.51c-.63.76-1.28,1.5-1.92,2.26-4.58,5.49-7,11.63-6.7,21.65a47.89,47.89,0,0,0,6.88,20.68A35.39,35.39,0,0,0,1892.69,774a71.33,71.33,0,0,0,10.25,4.66,50.52,50.52,0,0,0,33.37.82,21,21,0,0,1,2.19-.63,5.78,5.78,0,0,1,6.06,2,23.84,23.84,0,0,1,1.39,1.95,15.67,15.67,0,0,0,6.94,5.65c1.36.62,2.82,1.06,4.24,1.57.8.28,1.63.51,2.41.83,2.23.93,3.34,2.52,3.21,4.75a22.92,22.92,0,0,1-.37,2.3,18.88,18.88,0,0,0,1.57,11.65,22,22,0,0,0,9.3,9.6,23.78,23.78,0,0,1,2.8,1.79,5.67,5.67,0,0,1,2.33,5.8c-.14.77-.33,1.52-.5,2.28a15.8,15.8,0,0,0-.19,7.7,24,24,0,0,0,1.67,4.12c1.61,3.33,1.1,5.64-1.79,8.19-.69.61-1.41,1.17-2.11,1.76a10.91,10.91,0,0,0-3.77,6,26.59,26.59,0,0,0-.82,8.23,14.93,14.93,0,0,0,5.72,10.94c.65.51,1.28,1,1.89,1.58a5.66,5.66,0,0,1,2.09,4.91,13.14,13.14,0,0,1-.29,2.05,19.46,19.46,0,0,0-.43,4.37,11.06,11.06,0,0,0,3.56,8.23c.77.77,1.59,1.5,2.43,2.21a11.64,11.64,0,0,1,4.45,9,26.89,26.89,0,0,0,.66,5.13,17.33,17.33,0,0,0,11.6,13.19,35.89,35.89,0,0,0,12.58,2.23c12.88,0,22.82-8.7,25.63-17.57a23.41,23.41,0,0,0,1-6.91c0-3.06,1.32-4.59,4.48-5.59,1-.31,2-.56,3-.93,4.5-1.72,6.82-4.83,7.06-9.22a18.14,18.14,0,0,0-.79-5.89c-.83-2.94.33-5.24,3-7,.7-.46,1.45-.84,2.16-1.29,7.07-4.43,12.6-10,15.86-17.3a33.11,33.11,0,0,0,2.78-14.94,28.71,28.71,0,0,0-2.82-11.55,16.81,16.81,0,0,1-1.18-2.9,4.5,4.5,0,0,1,1.63-4.95c.71-.58,1.46-1.11,2.17-1.69a6.84,6.84,0,0,0,2.56-3.95c.12-.6.26-1.19.38-1.78.65-3.34,2.74-5.63,6.26-6.83,1-.33,2-.58,3-.86l3-.79a13.17,13.17,0,0,0,7.12-4.57c1.5-1.89,3-3.79,4.3-5.8a18.76,18.76,0,0,0,3.3-11.62,22.45,22.45,0,0,1,0-2.32,6.53,6.53,0,0,1,3.49-5.63c.71-.44,1.5-.76,2.23-1.17a6,6,0,0,0,3.3-5.93,24.29,24.29,0,0,0-.53-3.59,7.43,7.43,0,0,0-5.51-5.78,15.59,15.59,0,0,0-5.35-.81,22.9,22.9,0,0,1-2.87,0,4.61,4.61,0,0,1-4.24-3,12.08,12.08,0,0,1-.74-3.28c-.12-3.64.47-9.89.24-12.69-.6-7.14-5.79-12.13-9.85-14.77a30.51,30.51,0,0,0-13.53-4.92,3.93,3.93,0,0,1-2.46-.62c-2.38-1.92,0-7.46.61-11.69,1.61-10.49-6-20.13-9.84-24.61-7.39-8.62-14.34-11-16.62-11.69a66.6,66.6,0,0,0-20.92-3.08c-4.13,0-11,2.07-14.77,6.15-1.57,1.69-2.68,4.09-3.69,3.08-1.85-1.85-2.81-6.29-8-11.08-3.88-3.58-4.92-4.31-10.46-4.92-4.23-.47-8-.62-8-.62-1.8.17-1.85-.78-1.85-1.23"/><path d="M2092.06,884.5a6.76,6.76,0,0,1-5.46-2.51,5.37,5.37,0,0,1-.93-4.78,6.39,6.39,0,0,1,1.33-2.59l.29-.33a17,17,0,0,1,1.19-1.3l.52-.48c2.8-2.62,3-3.51,1.55-7.31l-.06-.15a13.33,13.33,0,0,1-.69-5.71,7,7,0,0,1,4.31-6,19.3,19.3,0,0,1,3.47-1.3,15.17,15.17,0,0,0,8.16-5.36,9.66,9.66,0,0,1,1.33-1.5,3.3,3.3,0,0,1,2.15-.85,4,4,0,0,1,1.82.49c.92.48,1,1,1.05,1.38a3.54,3.54,0,0,1-.85,3.08,8.68,8.68,0,0,0-2,8.72l.05.2c.18.65.35,1.27.46,1.87a6.11,6.11,0,0,1-2.81,6.68l-1,.63c-.46.31-.93.61-1.38.94a12,12,0,0,0-5.29,8.81c-.07.64-.12,1.33-.15,2.15-.1,3-2.66,5.16-6.06,5.24h-1.05Z"/><path d="M2109.22,846.31a2,2,0,0,1,.89.26c0,.93-.13,1.11-.32,1.32a10.69,10.69,0,0,0-2.48,10.62l0,.17a17.24,17.24,0,0,1,.43,1.72,4.11,4.11,0,0,1-2,4.68l-.93.62c-.48.31-1,.63-1.42,1a14.14,14.14,0,0,0-6.13,10.22c-.07.68-.12,1.41-.16,2.31-.08,2.21-2.18,3.26-4.11,3.31h-1a4.77,4.77,0,0,1-3.87-1.73,3.37,3.37,0,0,1-.59-3,4.46,4.46,0,0,1,.91-1.79l.3-.35c.37-.43.72-.84,1-1.14l.52-.48c3.23-3,3.89-4.63,2.05-9.48l-.06-.15a11.19,11.19,0,0,1-.56-4.87c.09-1.33.53-3,3.2-4.36a17.47,17.47,0,0,1,3.1-1.16,17.08,17.08,0,0,0,9.22-6.07,8.51,8.51,0,0,1,1-1.19,1.28,1.28,0,0,1,.86-.38m0-4a5.27,5.27,0,0,0-3.44,1.32,11.79,11.79,0,0,0-1.61,1.79,13.08,13.08,0,0,1-7.11,4.67,22.09,22.09,0,0,0-3.84,1.43c-3.33,1.66-5.18,4.24-5.41,7.68a15.09,15.09,0,0,0,.81,6.55c1.31,3.46,1.26,3.17-1.51,5.78a22.75,22.75,0,0,0-1.62,1.79,8.41,8.41,0,0,0-1.76,3.37c-1.36,5.1,2.65,9.81,8.33,9.81h1.09c4.32-.09,7.87-3,8-7.16,0-.67.07-1.34.14-2a10.07,10.07,0,0,1,4.46-7.39c.76-.54,1.54-1,2.31-1.56a8.09,8.09,0,0,0,3.64-8.68c-.14-.76-.35-1.51-.56-2.25a6.73,6.73,0,0,1,1.54-6.81,5.58,5.58,0,0,0,1.39-4.58,3.53,3.53,0,0,0-2.13-3,5.87,5.87,0,0,0-2.74-.72Z"/></g><path class="cls-4" d="M1900.42,662.79a3.51,3.51,0,0,1-.09,2,3.32,3.32,0,0,1-1.8,1.95c-.89.49-1.86.87-2.81,1.29a43.94,43.94,0,0,0-8.27,4.64c-4,2.92-7.36,6.35-9,10.81a26.46,26.46,0,0,0-1.63,14,11.22,11.22,0,0,1-2.59,9.51c-.63.76-1.28,1.5-1.92,2.26-4.58,5.49-7,11.63-6.7,21.65a47.89,47.89,0,0,0,6.88,20.68A35.39,35.39,0,0,0,1885.69,764a71.33,71.33,0,0,0,10.25,4.66,50.52,50.52,0,0,0,33.37.82,21,21,0,0,1,2.19-.63,5.78,5.78,0,0,1,6.06,2,23.84,23.84,0,0,1,1.39,1.95,15.67,15.67,0,0,0,6.94,5.65c1.36.62,2.82,1.06,4.24,1.57.8.28,1.63.51,2.41.83,2.23.93,3.34,2.52,3.21,4.75a22.92,22.92,0,0,1-.37,2.3,18.88,18.88,0,0,0,1.57,11.65,22,22,0,0,0,9.3,9.6,23.78,23.78,0,0,1,2.8,1.79,5.67,5.67,0,0,1,2.33,5.8c-.14.77-.33,1.52-.5,2.28a15.8,15.8,0,0,0-.19,7.7,24,24,0,0,0,1.67,4.12c1.61,3.33,1.1,5.64-1.79,8.19-.69.61-1.41,1.17-2.11,1.76a10.91,10.91,0,0,0-3.77,6,26.59,26.59,0,0,0-.82,8.23,14.93,14.93,0,0,0,5.72,10.94c.65.51,1.28,1,1.89,1.58a5.66,5.66,0,0,1,2.09,4.91,13.14,13.14,0,0,1-.29,2.05,19.46,19.46,0,0,0-.43,4.37,11.06,11.06,0,0,0,3.56,8.23c.77.77,1.59,1.5,2.43,2.21a11.64,11.64,0,0,1,4.45,9,26.89,26.89,0,0,0,.66,5.13,17.33,17.33,0,0,0,11.6,13.19,35.89,35.89,0,0,0,12.58,2.23c12.88,0,22.82-8.7,25.63-17.57a23.41,23.41,0,0,0,1-6.91c0-3.06,1.32-4.59,4.48-5.59,1-.31,2-.56,3-.93,4.5-1.72,6.82-4.83,7.06-9.22a18.14,18.14,0,0,0-.79-5.89c-.83-2.94.33-5.24,3-7,.7-.46,1.45-.84,2.16-1.29,7.07-4.43,12.6-10,15.86-17.3a33.11,33.11,0,0,0,2.78-14.94,28.71,28.71,0,0,0-2.82-11.55,16.81,16.81,0,0,1-1.18-2.9,4.5,4.5,0,0,1,1.63-4.95c.71-.58,1.46-1.11,2.17-1.69a6.84,6.84,0,0,0,2.56-3.95c.12-.6.26-1.19.38-1.78.65-3.34,2.74-5.63,6.26-6.83,1-.33,2-.58,3-.86l3-.79a13.17,13.17,0,0,0,7.12-4.57c1.5-1.89,3-3.79,4.3-5.8a18.76,18.76,0,0,0,3.3-11.62,22.45,22.45,0,0,1,0-2.32,6.53,6.53,0,0,1,3.49-5.63c.71-.44,1.5-.76,2.23-1.17a6,6,0,0,0,3.3-5.93,24.29,24.29,0,0,0-.53-3.59,7.43,7.43,0,0,0-5.51-5.78,15.59,15.59,0,0,0-5.35-.81,22.9,22.9,0,0,1-2.87,0,4.61,4.61,0,0,1-4.24-3,12.08,12.08,0,0,1-.74-3.28c-.12-3.64.47-9.89.24-12.69-.6-7.14-5.79-12.13-9.85-14.77a30.51,30.51,0,0,0-13.53-4.92,3.93,3.93,0,0,1-2.46-.62c-2.38-1.92,0-7.46.61-11.69,1.61-10.49-6-20.13-9.84-24.61-7.39-8.62-14.34-11-16.62-11.69a66.6,66.6,0,0,0-20.92-3.08c-4.13,0-11,2.07-14.77,6.15-1.57,1.69-2.68,4.09-3.69,3.08-1.85-1.85-2.81-6.29-8-11.08-3.88-3.58-4.92-4.31-10.46-4.92-4.23-.47-8-.62-8-.62-1.8.17-1.85-.78-1.85-1.23"/><path class="cls-6" d="M2085.06,874.5a6.76,6.76,0,0,1-5.46-2.51,5.37,5.37,0,0,1-.93-4.78,6.39,6.39,0,0,1,1.33-2.59l.29-.33a17,17,0,0,1,1.19-1.3l.52-.48c2.8-2.62,3-3.51,1.55-7.31l-.06-.15a13.33,13.33,0,0,1-.69-5.71,7,7,0,0,1,4.31-6,19.3,19.3,0,0,1,3.47-1.3,15.17,15.17,0,0,0,8.16-5.36,9.66,9.66,0,0,1,1.33-1.5,3.3,3.3,0,0,1,2.15-.85,4,4,0,0,1,1.82.49c.92.48,1,1,1.05,1.38a3.54,3.54,0,0,1-.85,3.08,8.68,8.68,0,0,0-2,8.72l.05.2c.18.65.35,1.27.46,1.87a6.11,6.11,0,0,1-2.81,6.68l-1,.63c-.46.31-.93.61-1.38.94a12,12,0,0,0-5.29,8.81c-.07.64-.12,1.33-.15,2.15-.1,3-2.66,5.16-6.06,5.24h-1.05Z"/><path d="M2102.22,836.31a2,2,0,0,1,.89.26c0,.93-.13,1.11-.32,1.32a10.69,10.69,0,0,0-2.48,10.62l0,.17a17.24,17.24,0,0,1,.43,1.72,4.11,4.11,0,0,1-2,4.68l-.93.62c-.48.31-1,.63-1.42,1a14.14,14.14,0,0,0-6.13,10.22c-.07.68-.12,1.41-.16,2.31-.08,2.21-2.18,3.26-4.11,3.31h-1a4.77,4.77,0,0,1-3.87-1.73,3.37,3.37,0,0,1-.59-3,4.46,4.46,0,0,1,.91-1.79l.3-.35c.37-.43.72-.84,1-1.14l.52-.48c3.23-3,3.89-4.63,2.05-9.48l-.06-.15a11.19,11.19,0,0,1-.56-4.87c.09-1.33.53-3,3.2-4.36a17.47,17.47,0,0,1,3.1-1.16,17.08,17.08,0,0,0,9.22-6.07,8.51,8.51,0,0,1,1-1.19,1.28,1.28,0,0,1,.86-.38m0-4a5.27,5.27,0,0,0-3.44,1.32,11.79,11.79,0,0,0-1.61,1.79,13.08,13.08,0,0,1-7.11,4.67,22.09,22.09,0,0,0-3.84,1.43c-3.33,1.66-5.18,4.24-5.41,7.68a15.09,15.09,0,0,0,.81,6.55c1.31,3.46,1.26,3.17-1.51,5.78a22.75,22.75,0,0,0-1.62,1.79,8.41,8.41,0,0,0-1.76,3.37c-1.36,5.1,2.65,9.81,8.33,9.81h1.09c4.32-.09,7.87-3,8-7.16,0-.67.07-1.34.14-2a10.07,10.07,0,0,1,4.46-7.39c.76-.54,1.54-1,2.31-1.56a8.09,8.09,0,0,0,3.64-8.68c-.14-.76-.35-1.51-.56-2.25a6.73,6.73,0,0,1,1.54-6.81,5.58,5.58,0,0,0,1.39-4.58,3.53,3.53,0,0,0-2.13-3,5.87,5.87,0,0,0-2.74-.72Z"/><g class="cls-7"><path d="M1980,678.22c-12,0-32.14-9.43-40.4-13.56,8.06-3.44,27.1-11,39.1-11,3.64,0,6.23.69,7.7,2.05,1.29,1.19,2.56,5.35,2.48,11-.07,5.32-1.32,8.8-2.44,9.79C1985.14,677.64,1983,678.22,1980,678.22Z"/><path d="M1978.72,651.67v4h0c3,0,5.28.54,6.34,1.52.65.6,1.85,3.88,1.84,9.1,0,5-1.15,8.13-1.76,8.7-.91.79-2.73,1.23-5.12,1.23-10,0-26.09-6.9-35.55-11.41,9.14-3.7,24.28-9.14,34.25-9.14v-4m0,0c-16.1,0-43.75,12.85-43.75,12.85s29.11,15.7,45,15.7c3.25,0,6-.65,7.75-2.22,4.22-3.7,4.13-19.93,0-23.75-2-1.84-5.18-2.58-9-2.58Z"/><path d="M1887.87,675.85c-3.21,0-5.51-.62-6.82-1.84-1.75-1.62-3-7.18-2.81-12.92s1.48-9.3,2.73-10.35a7.57,7.57,0,0,1,4.91-1.34c11.12,0,30.92,11.09,38.62,15.66-7.44,3.32-25.44,10.79-36.63,10.79Z"/><path d="M1885.88,651.4c8.73,0,24.31,7.76,34.22,13.39-8.49,3.6-22.91,9.06-32.23,9.06-3.53,0-4.94-.82-5.46-1.3-.84-.78-2.34-4.93-2.17-11.41.14-5.49,1.44-8.39,2-8.86a5.88,5.88,0,0,1,3.63-.88m0-4a9.43,9.43,0,0,0-6.19,1.81c-4.72,3.93-4.53,22.07,0,26.27,1.81,1.68,4.7,2.37,8.18,2.37,14.94,0,40.89-12.54,40.89-12.54s-28.21-17.91-42.88-17.91Z"/><path d="M2009.56,898.27c-16.41-.36-19.31-15.29-19.79-21.69-.9-11.92,14.49-50.4,19.81-63.28,5.25,11.86,19.68,45.75,19.68,60,0,4.53-.61,11-3.52,16.32-3.16,5.74-8.4,8.65-15.56,8.65Z"/><path d="M2009.64,818.41c2,4.57,4.5,10.6,7,17.08,8.76,22.58,10.6,33,10.6,37.82,0,3.51-.43,10.18-3.28,15.36s-7.33,7.61-13.8,7.61h-.57c-14.25-.31-17.3-12.57-17.85-19.84-.73-9.68,10.57-40,17.88-58m-.12-10.13s-22.88,53.47-21.75,68.45c.83,10.95,6.21,23.2,21.75,23.54h.66c18,0,21.08-16.83,21.08-27,0-18-21.74-65-21.74-65Z"/><path d="M1999.09,797.93V768.62H1964l.33,13.07H1902.8v-9.64h-18.75l-.56,1.08c-1.92,3.75-4.75,8.18-5.9,8.8s-3.89,1.41-10,1.41A142.91,142.91,0,0,1,1850,782V728c2.24-.17,6.29-.44,10.54-.44,9.39,0,12.69,1.25,13.82,2,1.37.9,4.15,6.43,5.94,11l.5,1.27h1.37c2.41,0,23.73-.19,29.95-5.21,2.79-2.26,5.4-10.79,6.14-13.35l.73-2.55h-13.08V707.59h14.59l10.26-15.07V672.79h-6.22l-.08-16.54h15l2.45,16.18-6.27-.9,1.52,20.06,12.83,16h11.06l.86,13.12h-15.57l2.6,3.25c.8,1,8,9.86,12.54,11.55,2.52.94,5.92,1.36,11,1.36,2.43,0,5-.09,7.57-.19s5.16-.18,7.62-.18c3.57,0,8.65.17,11.62,1.68,8.08,4.1,20.69,21.41,23.86,30.87,1.85,5.52.82,22.24.09,30.27Z"/><path d="M1937.74,658.25l1.79,11.81-1.14-.16-4.93-.71.38,5,1.28,17,.09,1.23.78,1,11.84,14.76,1.2,1.5h10.15l.6,9.12h-17.6l5.2,6.5c1.92,2.4,8.58,10.38,13.4,12.18,2.76,1,6.37,1.48,11.7,1.48,2.47,0,5.1-.1,7.64-.19s5.13-.18,7.55-.18c1.94,0,7.83,0,10.72,1.46,7.51,3.81,19.84,20.71,22.86,29.72,1.48,4.42,1,17.91.17,27.53L2001.09,796V766.62h-39.16l.1,4.1.23,9H1904.8v-9.64h-22l-1.12,2.17c-1.8,3.52-4.19,7.21-5.16,8-.74.37-3,1.12-9,1.12A132,132,0,0,1,1852,780.2V729.82c2.26-.14,5.34-.29,8.54-.29,9.37,0,12.12,1.28,12.67,1.62,1.06,1,3.48,5.64,5.23,10.12l1,2.55h2.73c4,0,24.59-.31,31.21-5.66,3-2.46,5.56-10,6.8-14.35l1.46-5.1h-13.73v-9.12h13.65l1.19-1.75,9.31-13.69.7-1V670.79h-6.23l-.06-12.54h11.27m3.44-4h-18.73l.1,20.54h6.21V691.9l-9.32,13.69h-15.53v17.12h12.42s-3,10.31-5.47,12.34c-5.85,4.73-28.69,4.77-28.69,4.77s-4-10.18-6.71-12-9.07-2.31-14.92-2.31c-6.54,0-12.54.6-12.54.6v57.56a149.47,149.47,0,0,0,19.58,1.65c4.52,0,8.68-.41,11-1.65,2.48-1.34,6.73-9.64,6.73-9.64h15.53v9.64h65.56l-.33-13.07h31.06v29.2l28,1.61s2.59-25.28,0-33c-3.31-9.88-16.17-27.61-24.85-32-3-1.52-7.53-1.9-12.53-1.9s-10.36.37-15.19.37c-4.06,0-7.7-.26-10.31-1.23-4.16-1.55-11.67-10.93-11.67-10.93h13.55l-1.12-17.12h-12l-11.84-14.77-1.29-17,6.47.93-3.11-20.54Z"/></g><path class="cls-6" d="M1974,672.22c-12,0-32.14-9.43-40.4-13.56,8.06-3.44,27.1-11,39.1-11,3.64,0,6.23.69,7.7,2.05,1.29,1.19,2.56,5.35,2.48,11-.07,5.32-1.32,8.8-2.44,9.79C1979.14,671.64,1977,672.22,1974,672.22Z"/><path d="M1972.72,645.67v4h0c3,0,5.28.54,6.34,1.52.65.6,1.85,3.88,1.84,9.1,0,5-1.15,8.13-1.76,8.7-.91.79-2.73,1.23-5.12,1.23-10,0-26.09-6.9-35.55-11.41,9.14-3.7,24.28-9.14,34.25-9.14v-4m0,0c-16.1,0-43.75,12.85-43.75,12.85s29.11,15.7,45,15.7c3.25,0,6-.65,7.75-2.22,4.22-3.7,4.13-19.93,0-23.75-2-1.84-5.18-2.58-9-2.58Z"/><path class="cls-6" d="M1881.87,669.85c-3.21,0-5.51-.62-6.82-1.84-1.75-1.62-3-7.18-2.81-12.92s1.48-9.3,2.73-10.35a7.57,7.57,0,0,1,4.91-1.34c11.12,0,30.92,11.09,38.62,15.66-7.44,3.32-25.44,10.79-36.63,10.79Z"/><path d="M1879.88,645.4c8.73,0,24.31,7.76,34.22,13.39-8.49,3.6-22.91,9.06-32.23,9.06-3.53,0-4.94-.82-5.46-1.3-.84-.78-2.34-4.93-2.17-11.41.14-5.49,1.44-8.39,2-8.86a5.88,5.88,0,0,1,3.63-.88m0-4a9.43,9.43,0,0,0-6.19,1.81c-4.72,3.93-4.53,22.07,0,26.27,1.81,1.68,4.7,2.37,8.18,2.37,14.94,0,40.89-12.54,40.89-12.54s-28.21-17.91-42.88-17.91Z"/><path class="cls-6" d="M2003.56,892.27c-16.41-.36-19.31-15.29-19.79-21.69-.9-11.92,14.49-50.4,19.81-63.28,5.25,11.86,19.68,45.75,19.68,60,0,4.53-.61,11-3.52,16.32-3.16,5.74-8.4,8.65-15.56,8.65Z"/><path d="M2003.64,812.41c2,4.57,4.5,10.6,7,17.08,8.76,22.58,10.6,33,10.6,37.82,0,3.51-.43,10.18-3.28,15.36s-7.33,7.61-13.8,7.61h-.57c-14.25-.31-17.3-12.57-17.85-19.84-.73-9.68,10.57-40,17.88-58m-.12-10.13s-22.88,53.47-21.75,68.45c.83,10.95,6.21,23.2,21.75,23.54h.66c18,0,21.08-16.83,21.08-27,0-18-21.74-65-21.74-65Z"/><path class="cls-6" d="M1993.09,791.93V762.62H1958l.33,13.07H1896.8v-9.64h-18.75l-.56,1.08c-1.92,3.75-4.75,8.18-5.9,8.8s-3.89,1.41-10,1.41A142.91,142.91,0,0,1,1844,776V722c2.24-.17,6.29-.44,10.54-.44,9.39,0,12.69,1.25,13.82,2,1.37.9,4.15,6.43,5.94,11l.5,1.27h1.37c2.41,0,23.73-.19,29.95-5.21,2.79-2.26,5.4-10.79,6.14-13.35l.73-2.55h-13.08V701.59h14.59l10.26-15.07V666.79h-6.22l-.08-16.54h15l2.45,16.18-6.27-.9,1.52,20.06,12.83,16h11.06l.86,13.12h-15.57l2.6,3.25c.8,1,8,9.86,12.54,11.55,2.52.94,5.92,1.36,11,1.36,2.43,0,5-.09,7.57-.19s5.16-.18,7.62-.18c3.57,0,8.65.17,11.62,1.68,8.08,4.1,20.69,21.41,23.86,30.87,1.85,5.52.82,22.24.09,30.27Z"/><path d="M1931.74,652.25l1.79,11.81-1.14-.16-4.93-.71.38,5,1.28,17,.09,1.23.78,1,11.84,14.76,1.2,1.5h10.15l.6,9.12h-17.6l5.2,6.5c1.92,2.4,8.58,10.38,13.4,12.18,2.76,1,6.37,1.48,11.7,1.48,2.47,0,5.1-.1,7.64-.19s5.13-.18,7.55-.18c1.94,0,7.83,0,10.72,1.46,7.51,3.81,19.84,20.71,22.86,29.72,1.48,4.42,1,17.91.17,27.53L1995.09,790V760.62h-39.16l.1,4.1.23,9H1898.8v-9.64h-22l-1.12,2.17c-1.8,3.52-4.19,7.21-5.16,8-.74.37-3,1.12-9,1.12A132,132,0,0,1,1846,774.2V723.82c2.26-.14,5.34-.29,8.54-.29,9.37,0,12.12,1.28,12.67,1.62,1.06,1,3.48,5.64,5.23,10.12l1,2.55h2.73c4,0,24.59-.31,31.21-5.66,3-2.46,5.56-10,6.8-14.35l1.46-5.1h-13.73v-9.12h13.65l1.19-1.75,9.31-13.69.7-1V664.79h-6.23l-.06-12.54h11.27m3.44-4h-18.73l.1,20.54h6.21V685.9l-9.32,13.69h-15.53v17.12h12.42s-3,10.31-5.47,12.34c-5.85,4.73-28.69,4.77-28.69,4.77s-4-10.18-6.71-12-9.07-2.31-14.92-2.31c-6.54,0-12.54.6-12.54.6v57.56a149.47,149.47,0,0,0,19.58,1.65c4.52,0,8.68-.41,11-1.65,2.48-1.34,6.73-9.64,6.73-9.64h15.53v9.64h65.56l-.33-13.07h31.06v29.2l28,1.61s2.59-25.28,0-33c-3.31-9.88-16.17-27.61-24.85-32-3-1.52-7.53-1.9-12.53-1.9s-10.36.37-15.19.37c-4.06,0-7.7-.26-10.31-1.23-4.16-1.55-11.67-10.93-11.67-10.93h13.55l-1.12-17.12h-12l-11.84-14.77-1.29-17,6.47.93-3.11-20.54Z"/><g class="cls-2"><path class="cls-3" d="M1159.53,575.19l-4.14-.47c-6.25-.7-10.13,5.28-7,10.7,0,0,9.74,12,10.71,26,.74,5.54-3.08,13.78-14.14,26.57-10.76,12.44-25.38,26.32-39.44,42.19-28.63,32.33-57.2,75.18-44.43,132,34.12,151.79,296.56,131.47,320.6-18.55,17.78-110.93-91.66-203.75-222.2-218.42Zm67,289.51c-10.1-2.3-21.49-26.87-23.17-28.85-1.47-1.72-3.9-4.4-5.93-7a33.18,33.18,0,0,1-2.43-3.53,6.89,6.89,0,0,1-.6-1.23,2.79,2.79,0,0,1-.11-.35,7.76,7.76,0,0,1,.72-1.86c.57-1.16,1.3-2.47,2-3.8a22.4,22.4,0,0,0,1.79-4.61,8.12,8.12,0,0,0-.35-5.39c-1.9-4-8-14.78-13.73-17.67-3.94-2-4.49-3.23-4.93-6.28-.27-2,.11-5.4-.33-8.53-.51-3.56-2.14-7.88-7.36-9.14-8.58-2.08-25.36,7.78-28,9.85s-14.6,9.39-17.18,10.28a3.83,3.83,0,0,1-1.79.11,13,13,0,0,1-1.83-.63,37.61,37.61,0,0,0-11-1.73,3.93,3.93,0,0,0-4.06,3.3c-.13.65-.09,1.54-.31,2.46a1.76,1.76,0,0,1-.77,1.13,10.09,10.09,0,0,1-4.67,1.27,35.13,35.13,0,0,1-7.35.1,118.1,118.1,0,0,1-.77-30.07c2.61-1.48,5.24-2.92,7.73-4.3,4-2.22,8-4.52,10.68-6.92a6.87,6.87,0,0,0,.9-1.87S1125.41,712,1136,716c3.63,1.36,5.78,3.33,10.07,4.93a10.91,10.91,0,0,0,1.39.14l1.46-.23a6.54,6.54,0,0,0,1.82-1.11c10.07-14.07,16.81-17.38,35.32-25.09a3.89,3.89,0,0,0,1.69-2.5l1-7.81c0-.5-.45,4.13,0,0,.26-2.29-2.24-32-5.55-56.85a36,36,0,0,0,1.47-15.33,42.92,42.92,0,0,0-1.73-8.25c110.22,22.56,187.56,96.18,173.36,187.24-15.47,99.23-162.79,130-229.54,66.86a19.15,19.15,0,0,0,2.71.06c2.93-.21,5.07-1.06,6.52-2.54a7.13,7.13,0,0,0,1.46-2.17c.17-.38.08-.94.41-1.11.53-.27,1.33.53,2.37,1.07a405.82,405.82,0,0,0,41,17.53c6.12,2.13,12.32,2.66,17.76,3,2.68.15,5.24.25,7.62.46a31.57,31.57,0,0,1,6,1c2,.59,3.44,1.1,4.74,1.49a21.67,21.67,0,0,0,4,.91c2.84.34,5.87-.06,11-1.19a49.2,49.2,0,0,0,12.32-4.34,21.89,21.89,0,0,0,3.34-2.15c2.07-1.7,1.89-3.62,1.66-4.21a3.42,3.42,0,0,0-4.08-1.76,16,16,0,0,0-2.15.67c-.78.29-1.57.63-2.07.85-2.64-.09-13.37-.79-15.23-.9-.94-.06,1-.08.21.08m-94.93-153.63"/><path class="cls-3" d="M1240.71,646.64c-4.81,2.44-1,11.83-5.51,16.53-4.12,4.24-10-.57-16.07,3.67-5.8,4.09-8,14-4.59,18.36,3.09,4,9.12,1.25,11,4.59,1.44,2.54,2.36-1.49-6,11.48-5.77,9-6,9.64-9.64,19.28-1.19,3.12-2.29,9,1.38,10.56,5,2.15,10.42-1.24,13.77-4.59,6.69-6.69,5.89-6.5,12.86-14.69,2.16-2.54,6.49-2.59,12.39-2.76,3.58-.09,5.2-3.35,20.66,5,4.11,2.24,5.17,2.75,6.88,2.76,6.34,0,8.72-6.81,14.24-6.43,3.32.23,6.81,3,7.34,6,1,5.62-8.44,13.29-17.9,15.61-11.86,2.91-15.06-4.72-29.38-4.13-10.32.42-24,5-31.22,15.15-3.84,5.39-2.73,8-8.72,16.52-5.7,8.14-8.33,8.14-10.56,13.32-4.33,10,.71,21.2,2.29,24.33,4.53,8.91,14.09,17.64,25.71,19.28,21.32,3,37.26-19.61,48.66-12.4,2.3,1.45,1.17,2.06,7.35,8.27,8.18,8.2,11.83,8.82,12.85,13.31s-2.39,5.94-2.75,12.85c-.28,5.32,1.27,13.63,5,15.15,8.33,3.36,31.5-24.74,40.4-54.63,2.43-8.17,2.08-19.68,1.37-42.69,0-1.77-.23-6-2.75-7.35-2.16-1.17-4.87.38-6.43.92-11,3.84-30.89-19.38-29.38-21.12,1.38-1.57,18.08,17.36,27.55,12.4,5.89-3.09,8.81-15.34,3.21-23.87-4.7-7.16-17.11-6.18-17-8.27.12-1.89,9.84-1.73,10.56-5,.53-2.42-4-5.3-5.05-6-15-9.67-13.95-18.79-39-36.27,0,0-20.88-14.56-40.86-15.61A5.21,5.21,0,0,0,1240.71,646.64Z"/></g><path class="cls-4" d="M1145.53,560.19l-4.14-.47c-6.25-.7-10.13,5.28-7,10.7,0,0,9.74,12,10.71,26,.74,5.54-3.08,13.78-14.14,26.57-10.76,12.44-25.38,26.32-39.44,42.19-28.63,32.33-57.2,75.18-44.43,132,34.12,151.79,296.56,131.47,320.6-18.55,17.78-110.93-91.66-203.75-222.2-218.42Zm67,289.51c-10.1-2.3-21.49-26.87-23.17-28.85-1.47-1.72-3.9-4.4-5.93-7a33.18,33.18,0,0,1-2.43-3.53,6.89,6.89,0,0,1-.6-1.23,2.79,2.79,0,0,1-.11-.35,7.76,7.76,0,0,1,.72-1.86c.57-1.16,1.3-2.47,2-3.8a22.4,22.4,0,0,0,1.79-4.61,8.12,8.12,0,0,0-.35-5.39c-1.9-4-8-14.78-13.73-17.67-3.94-2-4.49-3.23-4.93-6.28-.27-2,.11-5.4-.33-8.53-.51-3.56-2.14-7.88-7.36-9.14-8.58-2.08-25.36,7.78-28,9.85s-14.6,9.39-17.18,10.28a3.83,3.83,0,0,1-1.79.11,13,13,0,0,1-1.83-.63,37.61,37.61,0,0,0-11-1.73,3.93,3.93,0,0,0-4.06,3.3c-.13.65-.09,1.54-.31,2.46a1.76,1.76,0,0,1-.77,1.13,10.09,10.09,0,0,1-4.67,1.27,35.13,35.13,0,0,1-7.35.1,118.1,118.1,0,0,1-.77-30.07c2.61-1.48,5.24-2.92,7.73-4.3,4-2.22,8-4.52,10.68-6.92a6.87,6.87,0,0,0,.9-1.87S1111.41,697,1122,701c3.63,1.36,5.78,3.33,10.07,4.93a10.91,10.91,0,0,0,1.39.14l1.46-.23a6.54,6.54,0,0,0,1.82-1.11c10.07-14.07,16.81-17.38,35.32-25.09a3.89,3.89,0,0,0,1.69-2.5l1-7.81c0-.5-.45,4.13,0,0,.26-2.29-2.24-32-5.55-56.85a36,36,0,0,0,1.47-15.33,42.92,42.92,0,0,0-1.73-8.25c110.22,22.56,187.56,96.18,173.36,187.24-15.47,99.23-162.79,130-229.54,66.86a19.15,19.15,0,0,0,2.71.06c2.93-.21,5.07-1.06,6.52-2.54a7.13,7.13,0,0,0,1.46-2.17c.17-.38.08-.94.41-1.11.53-.27,1.33.53,2.37,1.07a405.82,405.82,0,0,0,41,17.53c6.12,2.13,12.32,2.66,17.76,3,2.68.15,5.24.25,7.62.46a31.57,31.57,0,0,1,6,1c2,.59,3.44,1.1,4.74,1.49a21.67,21.67,0,0,0,4,.91c2.84.34,5.87-.06,11-1.19a49.2,49.2,0,0,0,12.32-4.34,21.89,21.89,0,0,0,3.34-2.15c2.07-1.7,1.89-3.62,1.66-4.21a3.42,3.42,0,0,0-4.08-1.76,16,16,0,0,0-2.15.67c-.78.29-1.57.63-2.07.85-2.64-.09-13.37-.79-15.23-.9-.94-.06,1-.08.21.08m-94.93-153.63"/><path class="cls-4" d="M1226.71,631.64c-4.81,2.44-1,11.83-5.51,16.53-4.12,4.24-10-.57-16.07,3.67-5.8,4.09-8,14-4.59,18.36,3.09,4,9.12,1.25,11,4.59,1.44,2.54,2.36-1.49-6,11.48-5.77,9-6,9.64-9.64,19.28-1.19,3.12-2.29,9,1.38,10.56,5,2.15,10.42-1.24,13.77-4.59,6.69-6.69,5.89-6.5,12.86-14.69,2.16-2.54,6.49-2.59,12.39-2.76,3.58-.09,5.2-3.35,20.66,5,4.11,2.24,5.17,2.75,6.88,2.76,6.34,0,8.72-6.81,14.24-6.43,3.32.23,6.81,3,7.34,6,1,5.62-8.44,13.29-17.9,15.61-11.86,2.91-15.06-4.72-29.38-4.13-10.32.42-24,5-31.22,15.15-3.84,5.39-2.73,8-8.72,16.52-5.7,8.14-8.33,8.14-10.56,13.32-4.33,10,.71,21.2,2.29,24.33,4.53,8.91,14.09,17.64,25.71,19.28,21.32,3,37.26-19.61,48.66-12.4,2.3,1.45,1.17,2.06,7.35,8.27,8.18,8.2,11.83,8.82,12.85,13.31s-2.39,5.94-2.75,12.85c-.28,5.32,1.27,13.63,5,15.15,8.33,3.36,31.5-24.74,40.4-54.63,2.43-8.17,2.08-19.68,1.37-42.69,0-1.77-.23-6-2.75-7.35-2.16-1.17-4.87.38-6.43.92-11,3.84-30.89-19.38-29.38-21.12,1.38-1.57,18.08,17.36,27.55,12.4,5.89-3.09,8.81-15.34,3.21-23.87-4.7-7.16-17.11-6.18-17-8.27.12-1.89,9.84-1.73,10.56-5,.53-2.42-4-5.3-5.05-6-15-9.67-13.95-18.79-39-36.27,0,0-20.88-14.56-40.86-15.61A5.21,5.21,0,0,0,1226.71,631.64Z"/><g id="toilet"><path d="M1702.8,1168.28l32.22,5.45a37.56,37.56,0,0,1-4.92,13.61c-1.14,1.91-11.11,18-31.57,21.7-3.74.68-15.65,2.83-20.25-2.13-4.18-4.53.07-12.43,2.57-17.06a44,44,0,0,1,14.54-15.41Z"/><path d="M1655.64,1212.08c-.41.28,2,4.65,2.57,5.43,2.79,3.62,9.2,9.63,11.48,18.55.83,3.23-1.25,14.51-1.22,23.16,0,6.25-.26,4.5-.26,4.5a20.59,20.59,0,0,0,.26,4,7.09,7.09,0,0,0,2.57,3.56c4.38,3.43,15.11,2.6,15.11,2.6,10.53-.81,18.37-4,25.65-7.11a128.67,128.67,0,0,0,15.11-7.58,69.89,69.89,0,0,0,14.54-10,6.35,6.35,0,0,0,1.43-7.82c-2.39-5.71-5.87-20.9-6.27-22.75-2.27-10.53,2.4-19.91,7.12-29.39,7-14.08,7.31-19,7.31-19s3.8-13,2.22-17.82"/><path d="M1759.18,1132.17c3.57.21,19.22,1.23,19.22,1.23l24.06-16.6,26.52-85.55L1711.29,1008l-22,7.38-1.16,22.94-4.26,82.28,6.54,1.74"/><polyline points="1689.28 1015.37 1804.46 1041.44 1828.97 1031.25"/><line x1="1778.4" y1="1133.4" x2="1804.46" y2="1041.44"/><path d="M1693.36,1135.24c-.61.25-5.18,2.46-6.64,3.83-2.32,2.16-27.44,23-34.5,45-1.79,5.57-5.86,18.24,2.28,26.3,9.25,9.16,28.41,6.56,34.78,5.69,19.09-2.6,31.24-12.23,37.63-17.3,0,0,11.56-9.75,26.52-46.21,1.31-3.2-1.21-6.16-1.65-6.89"/><path d="M1697.77,1151.13l32.22,6.18a46.46,46.46,0,0,1-4.92,15.44c-1.14,2.17-11.11,20.43-31.57,24.62-3.74.77-15.65,3.21-20.25-2.42-4.18-5.13.07-14.09,2.57-19.36a47.54,47.54,0,0,1,14.54-17.47Z"/><path d="M1753.14,1145.94a6.39,6.39,0,0,0,2.28-2.6c15.76-31.34,14.54-41,14.54-41a48.18,48.18,0,0,0-17.39-30.81c-4.94-4-12.41-10.16-23.09-10.19-10.53,0-18,5.88-22.81,9.72-12.72,10.1-15.69,22.83-17.39,30.1-2.49,10.65-.28,21.15.29,25.35a55.06,55.06,0,0,0,1.42,7.11,5.2,5.2,0,0,0,1.43,2.37,8.62,8.62,0,0,0,4,1.9c4.77.29,25.82,3.83,37.92,7.58,0,0,9.14,2.84,15.68,1.66A9.08,9.08,0,0,0,1753.14,1145.94Z"/></g><path d="M1688,1158.29l32.21,5.45a37.52,37.52,0,0,1-4.92,13.6c-1.14,1.91-11.11,18-31.57,21.71-3.73.67-15.65,2.82-20.24-2.14-4.19-4.52.07-12.42,2.56-17.06a43.93,43.93,0,0,1,14.54-15.4Z"/><path class="cls-4" d="M1640.88,1202.09c-.41.27,1.95,4.64,2.56,5.43,2.8,3.61,9.21,9.63,11.49,18.54.82,3.24-1.26,14.52-1.23,23.16,0,6.26-.25,4.51-.25,4.51a20.54,20.54,0,0,0,.25,4,7.09,7.09,0,0,0,2.57,3.55c4.38,3.44,15.11,2.61,15.11,2.61,10.54-.82,18.37-4,25.66-7.11a130.9,130.9,0,0,0,15.11-7.59,69.44,69.44,0,0,0,14.54-10,6.33,6.33,0,0,0,1.42-7.82c-2.39-5.7-5.87-20.89-6.27-22.75-2.27-10.52,2.4-19.9,7.13-29.38,7-14.08,7.31-19,7.31-19s3.79-13,2.21-17.83"/><path class="cls-4" d="M1744.41,1122.17c3.57.21,19.23,1.23,19.23,1.23l24.06-16.6,26.51-85.55L1696.52,998l-22,7.38-1.16,22.94-4.26,82.27,6.53,1.75"/><polyline class="cls-4" points="1674.52 1005.38 1789.69 1031.44 1814.21 1021.25"/><line class="cls-4" x1="1763.64" y1="1123.4" x2="1789.69" y2="1031.44"/><path class="cls-4" d="M1678.59,1125.25c-.61.24-5.18,2.46-6.64,3.83-2.31,2.16-27.44,23-34.5,45-1.78,5.57-5.85,18.25,2.28,26.31,9.25,9.16,28.41,6.55,34.79,5.68,19.08-2.59,31.23-12.23,37.63-17.29,0,0,11.55-9.75,26.51-46.21,1.31-3.2-1.2-6.16-1.65-6.89"/><path class="cls-6" d="M1668.91,1186.56c-4.33,0-7.32-1-8.87-2.87-3.39-4.15.65-12.66,2.82-17.23a45.14,45.14,0,0,1,13.93-16.74l.09-.06,6.75-6.37,29.32,5.63a44.3,44.3,0,0,1-4.42,12.9c-1.71,3.26-11.21,19.71-30.2,23.6A48.35,48.35,0,0,1,1668.91,1186.56Z"/><path d="M1684.26,1145.45l26.33,5a42.11,42.11,0,0,1-3.83,10.39c-1,1.91-10.34,18.78-28.83,22.57a46.32,46.32,0,0,1-9,1.1c-3.6,0-6.2-.75-7.32-2.13-2.59-3.17,1.24-11.24,3.08-15.12a43.12,43.12,0,0,1,13.32-16l.18-.13.17-.16,5.92-5.58m-1.25-4.32-7.42,7a47.77,47.77,0,0,0-14.54,17.48c-2.49,5.26-6.75,14.23-2.56,19.36,2.29,2.81,6.41,3.6,10.42,3.6a50.18,50.18,0,0,0,9.82-1.18c20.46-4.2,30.43-22.46,31.57-24.63a46.49,46.49,0,0,0,4.92-15.43l-32.21-6.19Z"/><path class="cls-6" d="M1731.7,1135.42a46.62,46.62,0,0,1-11.55-1.85c-12.13-3.77-33.46-7.37-38.39-7.67a7.18,7.18,0,0,1-2.64-1.26,3.59,3.59,0,0,1-.95-1.46,59.32,59.32,0,0,1-1.39-6.93c-.07-.54-.17-1.18-.28-1.91-.74-4.82-2.12-13.78,0-22.72,1-4.45,4.2-18,16.58-35.13,3.5-4.85,17.14-14.16,26.59-14.16,10.34,0,17,3.55,24.35,9.27,13.65,11.18,9.73,37.46,9.24,40.42l-.17,1c-1,6.24-1.62,10-14.23,39.52a4.21,4.21,0,0,1-1.55,1.72h0a7.27,7.27,0,0,1-2.38.89,19.12,19.12,0,0,1-3.19.25Z"/><path d="M1719.63,1044.33c9.75,0,16.06,3.37,23.08,8.82,12.78,10.51,9,35.7,8.54,38.54l-.17,1c-1,6.09-1.59,9.76-14.1,39a2.34,2.34,0,0,1-.77.83,5.58,5.58,0,0,1-1.68.61,16,16,0,0,1-2.83.22,44.46,44.46,0,0,1-11-1.76c-12.32-3.83-33.13-7.35-38.63-7.74a6.15,6.15,0,0,1-1.57-.7,2.84,2.84,0,0,1-.43-.54,52.85,52.85,0,0,1-1.34-6.69l-.29-2c-.73-4.68-2.07-13.4-.07-22,1-4.35,4.11-17.6,16.25-34.41,3.21-4.45,16.26-13.33,25-13.33m0-4c-10.53,0-24.59,10-28.21,15-11.47,15.87-15.21,28.57-16.9,35.84-2.49,10.66-.28,21.15.28,25.36a58.61,58.61,0,0,0,1.43,7.11,5.21,5.21,0,0,0,1.42,2.37,8.49,8.49,0,0,0,4,1.89c4.78.29,25.82,3.83,37.92,7.59a47.81,47.81,0,0,0,12.14,1.94,19.37,19.37,0,0,0,3.54-.29,9.3,9.3,0,0,0,3.14-1.18,6.26,6.26,0,0,0,2.28-2.61c13.36-31.29,13.36-33.93,14.54-41,.61-3.68,4.51-30.45-10-42.32-7.94-6.18-15-9.7-25.58-9.7Z"/><g class="cls-2"><path d="M732.78,342.17v3.91L732.93,457H742V327c0-12.35-13.29-22-25.64-22a22.36,22.36,0,1,0,16.72,37.18"/><path class="cls-5" d="M732.78,342.17v3.91L732.93,457H742V327c0-12.35-13.29-22-25.64-22a22.36,22.36,0,1,0,16.72,37.18"/></g><path class="cls-6" d="M721.78,332.17v3.91L721.93,447H731V317c0-12.35-13.29-22-25.64-22a22.36,22.36,0,1,0,16.72,37.18"/><path class="cls-5" d="M721.78,332.17v3.91L721.93,447H731V317c0-12.35-13.29-22-25.64-22a22.36,22.36,0,1,0,16.72,37.18"/><g class="cls-2"><path d="M641,254.2v3.91L640.79,369,564,394V263c0-12.35,13.29-22,25.94-22s22.9,10,22.9,22.36-10.26,22.36-22.9,22.36c-6.84,0-10-2.3-14.23-6.94,0,0-1.12-1.95-1.71-1.77-1.24.38-.89,5.1-.89,5.1L573,374.72l58-21.19v-12L633,239c0-12.35,12.12-22,24.76-22s22.9,10,22.9,22.36-10.25,22.35-22.9,22.35a23,23,0,0,1-17.12-7.53"/><path class="cls-5" d="M641,254.2v3.91L640.79,369,564,394V263c0-12.35,13.29-22,25.94-22s22.9,10,22.9,22.36-10.26,22.36-22.9,22.36c-6.84,0-10-2.3-14.23-6.94,0,0-1.12-1.95-1.71-1.77-1.24.38-.89,5.1-.89,5.1L573,374.72l58-21.19v-12L633,239c0-12.35,12.12-22,24.76-22s22.9,10,22.9,22.36-10.25,22.35-22.9,22.35a23,23,0,0,1-17.12-7.53"/></g><path class="cls-6" d="M630,244.2v3.91L629.79,359,553,384V253c0-12.35,13.29-22,25.94-22s22.9,10,22.9,22.36-10.26,22.36-22.9,22.36c-6.84,0-10-2.3-14.23-6.94,0,0-1.12-1.95-1.71-1.77-1.24.38-.89,5.1-.89,5.1L562,364.72l58-21.19v-12L622,229c0-12.35,12.12-22,24.76-22s22.9,10,22.9,22.36-10.25,22.35-22.9,22.35a23,23,0,0,1-17.12-7.53"/><path class="cls-5" d="M630,244.2v3.91L629.79,359,553,384V253c0-12.35,13.29-22,25.94-22s22.9,10,22.9,22.36-10.26,22.36-22.9,22.36c-6.84,0-10-2.3-14.23-6.94,0,0-1.12-1.95-1.71-1.77-1.24.38-.89,5.1-.89,5.1L562,364.72l58-21.19v-12L622,229c0-12.35,12.12-22,24.76-22s22.9,10,22.9,22.36-10.25,22.35-22.9,22.35a23,23,0,0,1-17.12-7.53"/><path d="M1799.63,350.61l3,40.61-73,20.6-63.25-32.15,7.88-31.1-22.47-11.32-31.21-15.71,117.71-31.89L1848,332c-5,1.51-9.18,3-12.6,4.33l-12.73,6.09c1,2.17,1.74,4,2.22,5.33,2.4,6.53,5.16,17.28,4,21.55a2.9,2.9,0,0,0,0,1.92c.52,1.28,1.88,1.18,3.36,2.4a7.78,7.78,0,0,1,2.4,4.32,6.57,6.57,0,0,1,0,4.32c-1.07,2.44-3.65,2.09-5.28,4.8a7.5,7.5,0,0,0-1,3.36c-.67,6.85,6.24,14.88,6.24,14.88l-17.76.48a159.18,159.18,0,0,0,6.24-16.8c.37-1.18.88-3,0-4.32-1.37-2.11-4.6-.81-6.24-2.88-1.51-1.9-.87-5.61,1-7.68,2-2.29,4.21-1.08,5.76-2.88,1.83-2.12.28-6.72-2.88-15.84-.59-1.69-1.94-5.59-3.84-11l-82.56,32.16-60.09-28"/><path class="cls-4" d="M1794.57,342.17l3,40.61-73,20.6-63.25-32.15,7.87-31.1-22.47-11.32-31.2-15.71,117.71-31.89,109.71,42.38c-5,1.51-9.19,3-12.6,4.34L1817.61,334a37.51,37.51,0,0,1,1.7,4.54c2.39,6.53,5.06,20.26,5.06,20.26l.84,4.22a8.51,8.51,0,0,0,2,2.18,7.78,7.78,0,0,1,2.4,4.32,6.64,6.64,0,0,1,0,4.32c-1.08,2.44-5.28,4.8-5.28,4.8a23.59,23.59,0,0,0-1,3.36c-.67,6.85,6.24,14.88,6.24,14.88l-17.76.48a159.18,159.18,0,0,0,6.24-16.8,16.63,16.63,0,0,0,0-4.32,21.35,21.35,0,0,1-4.69-3.94c-1.51-1.9-1-4.69.84-6.75a8.6,8.6,0,0,1,4.33-2.75,47.34,47.34,0,0,0-2.88-15.84l-3.84-11-82.57,32.16-60.09-28"/><path class="cls-5" d="M1349,629.58s3.46-2.26,29.5-19c5.9-3.79,12.51-7,20.49-12.4,12.25-8.26,11.17-8.27,15.79-10.92,8.78-5,9.37-3.08,17.65-8.25,1.34-.84,4.9-3.35,12-8.37,5-3.5,5.75-4.11,8.5-6,5.73-3.94,8.67-5.66,12.27-8,3.32-2.16,8.12-5.76,17.6-12.86,14.42-10.82,17.08-13.09,22.7-16.35,4.85-2.83,5.21-2.5,8.59-4.74,6.13-4.06,8.56-7.52,16.36-15.75,8.38-8.83,16.81-16.68,29.84-28.79.85-.8,2.39-2.48,5.06-4.68,4.47-3.69,8.38-5.93,13.39-9,5.86-3.57,13.12-8,20.63-13.36,4.18-3,2.84-2.29,13.47-10.31,8.6-6.48,8.81-6.45,12.62-9.49,4.66-3.74,5.74-4.91,13-11,3.61-3,6.63-5.47,8.61-7.07"/><path class="cls-5" d="M1366.25,880c15.46,17.32,34.26,49.47,38.62,56,8.12,12.25,6.85,18.24,17.56,33a131,131,0,0,0,17,19.05c7.61,6.94,10.42,7.71,19.6,16.22,4.78,4.43,4.19,4.38,14,14.23,9.45,9.52,14.17,14.27,17.92,17.09,8.93,6.73,17.21,10,23.49,12.51,11.09,4.35,14.5,3.75,26.28,8.58,6.39,2.62,4.35,2.42,15.69,7.69,12.66,5.88,16.21,6.7,21.66,11.24,4.24,3.53,2.86,3.66,9.42,10.23,5,5,10.59,10.6,18.86,15.36,6.22,3.58,8.81,3.73,15.18,8.28a66.48,66.48,0,0,1,8,6.7"/><path class="cls-5" d="M1400,729.77c27.84,2,70.81,12,80,13.66,17.22,3.19,21,8.06,42.6,11.35a207,207,0,0,0,30.6,2.22c12.4-.1,15.52-1.36,30.59-1.39,7.85,0,7.29.33,24,.83,16.14.49,24.21.73,29.82.28a138.71,138.71,0,0,0,31-6.37c13.35-4.06,15.86-6.63,30.21-10.8,7.79-2.26,5.83-1.11,20.14-4.7,16-4,19.8-5.71,28.33-6.07,6.64-.29,5.53.68,16.71,1,8.48.24,18,.5,29.23-1.49,8.43-1.5,10.84-3,20.19-4a103.88,103.88,0,0,1,12.53-.5"/><path class="cls-5" d="M1059.68,870c-18.56,14.16-43.69,42.3-49.31,47.95-10.48,10.55-10.66,16.68-24.17,29.25a138.64,138.64,0,0,1-20.38,15.59c-8.77,5.41-11.6,5.64-22.21,12.3-5.52,3.47-5,3.53-16.45,11.41-11.1,7.6-16.65,11.4-20.82,13.48-10,4.95-18.54,6.67-25,7.93-11.45,2.22-14.53,1-26.74,3.55-6.62,1.39-4.66,1.57-16.55,4.64-13.29,3.43-16.82,3.58-23,7-4.81,2.68-3.54,3.07-11.24,8.31-5.84,4-12.42,8.46-21.31,11.61-6.68,2.36-9.16,2-16.21,5.32a68.22,68.22,0,0,0-9.06,5.1"/><path class="cls-5" d="M998.05,743.48c-26.27,2-66.83,11.94-75.54,13.66-16.25,3.19-19.83,8.06-40.21,11.35a182.66,182.66,0,0,1-28.88,2.21c-11.7-.1-14.65-1.35-28.87-1.38-7.41,0-6.88.32-22.67.83-15.23.49-22.85.73-28.14.28a125.22,125.22,0,0,1-29.25-6.37c-12.59-4.06-15-6.63-28.51-10.8-7.35-2.26-5.5-1.11-19-4.71-15.09-4-18.68-5.7-26.73-6.07-6.26-.28-5.22.69-15.77,1-8,.23-17,.5-27.59-1.49-8-1.51-10.23-3-19-4a94.18,94.18,0,0,0-11.83-.49"/><path class="cls-5" d="M1043.18,633.78s-3.1-2.21-26.63-18.47c-5.33-3.68-11.94-6.18-19-11.54-10.84-8.24-9.41-8.68-13.79-11-8.33-4.51-10.32-1.19-17.92-6.1-1.22-.79-4.3-3.36-10.45-8.5-4.29-3.58-4.94-4.23-7.35-6.14-5-4-7.79-5.53-11-7.81-3-2.09-7-5.89-14.93-13.4-12.06-11.44-14.11-14-19.41-16.92-4.58-2.55-5.25-1.89-8.27-4.11-5.46-4-6.46-8.52-11.49-18.46-5.4-10.68-11.49-19.77-20.9-33.81a35.58,35.58,0,0,0-3.68-5.4c-3.53-4.07-7.24-6.07-11.88-8.92a135.39,135.39,0,0,1-18.58-13c-3.59-3.1-2.29-2.5-11.15-11-7.16-6.87-7.46-6.73-10.53-10.05-3.75-4.07-4.43-5.49-10.11-12.23-2.83-3.34-5.23-6-6.82-7.79"/></g><g id="lists_dots" data-name="lists,dots"><circle class="cls-4" cx="70.95" cy="1205.53" r="17.56"/><text class="cls-8" transform="translate(108.11 1214.66)"><tspan class="cls-9">L</tspan><tspan class="cls-10" x="13.98" y="0">ov</tspan><tspan x="41.35" y="0">e</tspan></text><circle class="cls-11" cx="70.95" cy="1264.28" r="17.56"/><text class="cls-8" transform="translate(108.11 1273.41)"><tspan class="cls-12">W</tspan><tspan class="cls-13" x="23.08" y="0">a</tspan><tspan x="37.57" y="0">ter</tspan></text><circle class="cls-14" cx="70.95" cy="1323.03" r="17.56"/><text class="cls-8" transform="translate(108.11 1332.16)"><tspan class="cls-15">C</tspan><tspan x="18.71" y="0">ommun</tspan><tspan class="cls-15" x="112.7" y="0">it</tspan><tspan x="129.51" y="0">y</tspan></text><circle class="cls-16" cx="70.95" cy="1381.78" r="17.56"/><text class="cls-17" transform="translate(108.11 1390.91)">J<tspan class="cls-18" x="10.39" y="0">o</tspan><tspan class="cls-19" x="25.27" y="0">y</tspan></text><circle class="cls-20" cx="70.95" cy="1440.53" r="17.56"/><text class="cls-8" transform="translate(108.11 1449.66)"><tspan class="cls-10">S</tspan><tspan class="cls-13" x="17.9" y="0">us</tspan><tspan class="cls-10" x="46.56" y="0">t</tspan><tspan x="56.25" y="0">ainabil</tspan><tspan class="cls-15" x="136.85" y="0">it</tspan><tspan x="153.65" y="0">y</tspan></text><circle class="cls-11" cx="1491.98" cy="1033.52" r="17.56"/><circle class="cls-11" cx="1613.46" cy="755.46" r="17.56"/><circle class="cls-11" cx="1542.81" cy="496.76" r="17.56"/><circle class="cls-21" cx="908.89" cy="997.52" r="17.56"/><circle class="cls-22" cx="800.66" cy="771.9" r="17.56"/><circle class="cls-14" cx="885.66" cy="517.9" r="17.56"/></g></g></svg>
